<?xml version="1.0" encoding="UTF-8"?>
<svg width="3300px" height="2200px" viewBox="0 0 3300 2200" version="1.1" xmlns="http://www.w3.org/2000/svg" xmlns:xlink="http://www.w3.org/1999/xlink">
    <!-- Generator: Sketch 58 (84663) - https://sketch.com -->
    <title>availibility.fill</title>
    <desc>Created with Sketch.</desc>
    <g id="Filled" stroke="none" stroke-width="1" fill="none" fill-rule="evenodd">
        <g id="availibility.fill">
            <g id="Notes">
                <rect id="artboard" fill="#FFFFFF" fill-rule="nonzero" x="0" y="0" width="3300" height="2200"></rect>
                <path d="M263,292 L3036,292" id="Path" stroke="#000000" stroke-width="0.5"></path>
                <text id="Weight/Scale-Variations" fill="#000000" font-family="Helvetica-Bold, Helvetica" font-size="13" font-weight="bold">
                    <tspan x="263" y="322">Weight/Scale Variations</tspan>
                </text>
                <text id="Ultralight" fill="#000000" font-family="Helvetica" font-size="13" font-weight="normal">
                    <tspan x="533.711" y="322">Ultralight</tspan>
                </text>
                <text id="Thin" fill="#000000" font-family="Helvetica" font-size="13" font-weight="normal">
                    <tspan x="843.422" y="322">Thin</tspan>
                </text>
                <text id="Light" fill="#000000" font-family="Helvetica" font-size="13" font-weight="normal">
                    <tspan x="1138.63" y="322">Light</tspan>
                </text>
                <text id="Regular" fill="#000000" font-family="Helvetica" font-size="13" font-weight="normal">
                    <tspan x="1426.84" y="322">Regular</tspan>
                </text>
                <text id="Medium" fill="#000000" font-family="Helvetica" font-size="13" font-weight="normal">
                    <tspan x="1723.06" y="322">Medium</tspan>
                </text>
                <text id="Semibold" fill="#000000" font-family="Helvetica" font-size="13" font-weight="normal">
                    <tspan x="2015.77" y="322">Semibold</tspan>
                </text>
                <text id="Bold" fill="#000000" font-family="Helvetica" font-size="13" font-weight="normal">
                    <tspan x="2326.48" y="322">Bold</tspan>
                </text>
                <text id="Heavy" fill="#000000" font-family="Helvetica" font-size="13" font-weight="normal">
                    <tspan x="2618.19" y="322">Heavy</tspan>
                </text>
                <text id="Black" fill="#000000" font-family="Helvetica" font-size="13" font-weight="normal">
                    <tspan x="2917.4" y="322">Black</tspan>
                </text>
                <path d="M263,1903 L3036,1903" id="Path" stroke="#000000" stroke-width="0.5"></path>
                <g id="Group" transform="translate(264.000000, 1918.000000)" fill="#000000" fill-rule="nonzero">
                    <path d="M8.24805,15.830078 C12.5547,15.830078 16.1387,12.25586 16.1387,7.94922 C16.1387,3.6426 12.5449,0.0684 8.23828,0.0684 C3.94141,0.0684 0.36719,3.6426 0.36719,7.94922 C0.36719,12.25586 3.95117,15.830078 8.24805,15.830078 Z M8.24805,14.345703 C4.70312,14.345703 1.87109,11.50391 1.87109,7.94922 C1.87109,4.3945 4.69336,1.5527 8.23828,1.5527 C11.793,1.5527 14.6348,4.3945 14.6445252,7.94922 C14.6543,11.50391 11.8027,14.345703 8.24805,14.345703 Z M8.22852,11.57227 C8.69727,11.57227 8.9707,11.25977 8.9707,10.74219 L8.9707,8.68164 L11.1973,8.68164 C11.6953,8.68164 12.0371,8.42773 12.0371,7.95898 C12.0371,7.48047 11.7148,7.2168 11.1973,7.2168 L8.9707,7.2168 L8.9707,4.9902 C8.9707,4.4727 8.69727,4.1504 8.22852,4.1504 C7.75977,4.1504 7.50586,4.4922 7.50586,4.9902 L7.50586,7.2168 L5.29883,7.2168 C4.78125,7.2168 4.44922,7.48047 4.44922,7.95898 C4.44922,8.42773 4.80078,8.68164 5.29883,8.68164 L7.50586,8.68164 L7.50586,10.74219 C7.50586,11.24023 7.75977,11.57227 8.22852,11.57227 Z" id="Shape"></path>
                </g>
                <g id="Group" transform="translate(282.506000, 1915.000000)" fill="#000000" fill-rule="nonzero">
                    <path d="M10.709,20.91016 C16.1582,20.91016 20.6699,16.39844 20.6699,10.94922 C20.6699,5.5098 16.1484,0.9883 10.6992,0.9883 C5.25977,0.9883 0.74805,5.5098 0.74805,10.94922 C0.74805,16.39844 5.26953,20.91016 10.709,20.91016 Z M10.709,19.25 C6.09961,19.25 2.41797,15.55859 2.41797,10.94922 C2.41797,6.3496 6.08984,2.6484 10.6992,2.6484 C15.3086,2.6484 19,6.3496 19.009819,10.94922 C19.0195,15.55859 15.3184,19.25 10.709,19.25 Z M10.6895,15.58789 C11.207,15.58789 11.5195,15.22656 11.5195,14.66016 L11.5195,11.76953 L14.5762,11.76953 C15.123,11.76953 15.5039,11.48633 15.5039,10.96875 C15.5039,10.44141 15.1426,10.13867 14.5762,10.13867 L11.5195,10.13867 L11.5195,7.0723 C11.5195,6.4961 11.207,6.1445 10.6895,6.1445 C10.1719,6.1445 9.8789,6.5156 9.8789,7.0723 L9.8789,10.13867 L6.83203,10.13867 C6.26562,10.13867 5.89453,10.44141 5.89453,10.96875 C5.89453,11.48633 6.28516,11.76953 6.83203,11.76953 L9.8789,11.76953 L9.8789,14.66016 C9.8789,15.20703 10.1719,15.58789 10.6895,15.58789 Z" id="Shape"></path>
                </g>
                <g id="Group" transform="translate(306.924000, 1913.000000)" fill="#000000" fill-rule="nonzero">
                    <path d="M12.9707,25.67383 C19.9336,25.67383 25.6953,19.921875 25.6953,12.95898 C25.6953,5.9961 19.9238,0.2441 12.9609,0.2441 C6.00781,0.2441 0.25586,5.9961 0.25586,12.95898 C0.25586,19.921875 6.01758,25.67383 12.9707,25.67383 Z M12.9707,23.85742 C6.93555,23.85742 2.08203,18.99414 2.08203,12.95898 C2.08203,6.9238 6.92578,2.0605 12.9609,2.0605 C19.0059,2.0605 23.8594,6.9238 23.8691148,12.95898 C23.8789,18.99414 19.0156,23.85742 12.9707,23.85742 Z M12.9512,18.93555 C13.5176,18.93555 13.8691,18.54492 13.8691,17.93945 L13.8691,13.86719 L18.1074,13.86719 C18.6934,13.86719 19.1133,13.53516 19.1133,12.97852 C19.1133,12.40234 18.7227,12.06055 18.1074,12.06055 L13.8691,12.06055 L13.8691,7.8125 C13.8691,7.1973 13.5176,6.8066 12.9512,6.8066 C12.3848,6.8066 12.0625,7.2168 12.0625,7.8125 L12.0625,12.06055 L7.83398,12.06055 C7.21875,12.06055 6.80859,12.40234 6.80859,12.97852 C6.80859,13.53516 7.23828,13.86719 7.83398,13.86719 L12.0625,13.86719 L12.0625,17.93945 C12.0625,18.52539 12.3848,18.93555 12.9512,18.93555 Z" id="Shape"></path>
                </g>
                <text id="Design-Variations" fill="#000000" font-family="Helvetica-Bold, Helvetica" font-size="13" font-weight="bold">
                    <tspan x="263" y="1953">Design Variations</tspan>
                </text>
                <text id="Symbols-are-supported-in-up-to-nine-weights-and-three-scales." fill="#000000" font-family="Helvetica" font-size="13" font-weight="normal">
                    <tspan x="263" y="1971">Symbols are supported in up to nine weights and three scales.</tspan>
                </text>
                <text id="For-optimal-layout-with-text-and-other-symbols,-vertically-align" fill="#000000" font-family="Helvetica" font-size="13" font-weight="normal">
                    <tspan x="263" y="1989">For optimal layout with text and other symbols, vertically align</tspan>
                </text>
                <text id="symbols-with-the-adjacent-text." fill="#000000" font-family="Helvetica" font-size="13" font-weight="normal">
                    <tspan x="263" y="2007">symbols with the adjacent text.</tspan>
                </text>
                <rect id="Rectangle" fill="#00AEEF" fill-rule="nonzero" opacity="0.4" x="776" y="1919" width="3" height="14"></rect>
                <g id="Group" transform="translate(779.000000, 1918.000000)" fill="#000000" fill-rule="nonzero">
                    <path d="M10.5273,15 L12.373,15 L7.17773,0.9082 L5.43945,0.9082 L0.244141,15 L2.08984,15 L3.50586,10.9668 L9.11133,10.9668 L10.5273,15 Z M6.2793,3.0469 L6.33789,3.0469 L8.59375,9.47266 L4.02344,9.47266 L6.2793,3.0469 Z" id="Shape"></path>
                </g>
                <rect id="Rectangle" fill="#00AEEF" fill-rule="nonzero" opacity="0.4" x="791.617" y="1919" width="3" height="14"></rect>
                <text id="Margins" fill="#000000" font-family="Helvetica-Bold, Helvetica" font-size="13" font-weight="bold">
                    <tspan x="776" y="1953">Margins</tspan>
                </text>
                <text id="Leading-and-trailing-margins-on-the-left-and-right-side-of-each-symbol" fill="#000000" font-family="Helvetica" font-size="13" font-weight="normal">
                    <tspan x="776" y="1971">Leading and trailing margins on the left and right side of each symbol</tspan>
                </text>
                <text id="can-be-adjusted-by-modifying-the-width-of-the-blue-rectangles." fill="#000000" font-family="Helvetica" font-size="13" font-weight="normal">
                    <tspan x="776" y="1989">can be adjusted by modifying the width of the blue rectangles.</tspan>
                </text>
                <text id="Modifications-are-automatically-applied-proportionally-to-all" fill="#000000" font-family="Helvetica" font-size="13" font-weight="normal">
                    <tspan x="776" y="2007">Modifications are automatically applied proportionally to all</tspan>
                </text>
                <text id="scales-and-weights." fill="#000000" font-family="Helvetica" font-size="13" font-weight="normal">
                    <tspan x="776" y="2025">scales and weights.</tspan>
                </text>
                <g id="Group" transform="translate(1291.000000, 1915.000000)" fill="#000000" fill-rule="nonzero">
                    <path d="M0.83203,21.11523 L2.375,22.6582 C3.22461,23.48828 4.19141,23.41992 5.06055,22.46289 L15.2754,11.33984 C15.7051,11.63281 16.0957,11.62305 16.5645,11.52539 L17.6094,11.31055 L18.3027,12.00391 L18.2539,12.52148 C18.1855,13.04883 18.3516,13.46875 18.8496,13.9668 L19.6602,14.77734 C20.168,15.28516 20.8223,15.31445 21.3008,14.83594 L24.5527,11.58398 C25.0312,11.10547 25.0117,10.45117 24.5039,9.94336 L23.6836,9.12305 C23.1855,8.625 22.7754,8.44922 22.2383,8.52734 L21.7109,8.58594 L21.0566,7.9219 L21.3398,6.7793 C21.4863,6.2129 21.3398,5.7441 20.7148,5.1387 L18.3027,2.7461 C14.7578,-0.7793 10.2266,-0.6719 7.11133,2.4629 C6.69141,2.8926 6.64258,3.4785 6.91602,3.9082 C7.15039,4.2793 7.62891,4.5039 8.2734,4.3379 C9.7871,3.957 11.3008,4.0742 12.7852,5.0801 L12.1602,6.6621 C11.9258,7.248 11.9453,7.7266 12.1797,8.16602 L1.01758,18.439453 C0.08008,19.30859 -0.02734,20.25586 0.83203,21.11523 Z M8.6738,2.8535 C11.3398,0.8613 14.6504,1.1738 17.0527,3.5859 L19.6797,6.1934 C19.9141,6.4277 19.9434,6.6133 19.8848,6.9062 L19.5039,8.46875 L21.0762,10.04102 L22.043,9.95312 C22.3262,9.92383 22.4141,9.94336 22.6387,10.16797 L23.2637,10.79297 L20.5098,13.53711 L19.8848,12.92188 C19.6602,12.69727 19.6406,12.59961 19.6699,12.31641 L19.7578,11.35938 L18.1953,9.79688 L16.5742,10.10938 C16.291,10.16797 16.1445,10.16797 15.9102,9.92383 L13.7324,7.7461 C13.5078,7.5117 13.4785,7.375 13.6055,7.0527 L14.5527,4.7773 C12.9512,3.2441 10.8418,2.3945 8.8008,3.0488 C8.7129,3.0781 8.6445,3.0586 8.6152,3.0195 C8.5859,2.9707 8.5859,2.9219 8.6738,2.8535 Z M2.10156,20.41211 C1.61328,19.91406 1.78906,19.61133 2.12109,19.30859 L13.0781,9.19141 L14.3086,10.42188 L4.15234,21.34961 C3.84961,21.68164 3.46875,21.7793 3.06836,21.37891 L2.10156,20.41211 Z" id="Shape"></path>
                </g>
                <text id="Exporting" fill="#000000" font-family="Helvetica-Bold, Helvetica" font-size="13" font-weight="bold">
                    <tspan x="1289" y="1953">Exporting</tspan>
                </text>
                <text id="Symbols-should-be-outlined-when-exporting-to-ensure-the" fill="#000000" font-family="Helvetica" font-size="13" font-weight="normal">
                    <tspan x="1289" y="1971">Symbols should be outlined when exporting to ensure the</tspan>
                </text>
                <text id="design-is-preserved-when-submitting-to-Xcode." fill="#000000" font-family="Helvetica" font-size="13" font-weight="normal">
                    <tspan x="1289" y="1989">design is preserved when submitting to Xcode.</tspan>
                </text>
                <text id="template-version" fill="#000000" font-family="Helvetica" font-size="13" font-weight="normal">
                    <tspan x="2952" y="1933">Template v.1.0</tspan>
                </text>
                <text id="Generated-from-rectangle.grid.3x2.fill" fill="#000000" font-family="Helvetica" font-size="13" font-weight="normal">
                    <tspan x="2822" y="1951">Generated from rectangle.grid.3x2.fill</tspan>
                </text>
                <text id="Typeset-at-100-points" fill="#000000" font-family="Helvetica" font-size="13" font-weight="normal">
                    <tspan x="2912" y="1969">Typeset at 100 points</tspan>
                </text>
                <text id="Small" fill="#000000" font-family="Helvetica" font-size="13" font-weight="normal">
                    <tspan x="263" y="726">Small</tspan>
                </text>
                <text id="Medium" fill="#000000" font-family="Helvetica" font-size="13" font-weight="normal">
                    <tspan x="263" y="1156">Medium</tspan>
                </text>
                <text id="Large" fill="#000000" font-family="Helvetica" font-size="13" font-weight="normal">
                    <tspan x="263" y="1586">Large</tspan>
                </text>
            </g>
            <g id="Guides" transform="translate(263.000000, 625.000000)">
                <g id="H-reference" transform="translate(76.000000, 0.000000)" fill="#27AAE1" fill-rule="nonzero">
                    <path d="M54.9316,71 L57.666,71 L30.5664,0.541 L28.0762,0.541 L0.976562,71 L3.66211,71 L12.9395,46.5371 L45.7031,46.5371 L54.9316,71 Z M29.1992,3.9102 L29.4434,3.9102 L44.8242,44.291 L13.8184,44.291 L29.1992,3.9102 Z" id="Shape"></path>
                </g>
                <path d="M0,71 L2773,71" id="Baseline-S" stroke="#27AAE1" stroke-width="0.577"></path>
                <path d="M0,0.541 L2773,0.541" id="Capline-S" stroke="#27AAE1" stroke-width="0.577"></path>
                <g id="H-reference" transform="translate(76.000000, 430.000000)" fill="#27AAE1" fill-rule="nonzero">
                    <path d="M54.9316,71 L57.666,71 L30.5664,0.541 L28.0762,0.541 L0.976562,71 L3.66211,71 L12.9395,46.5371 L45.7031,46.5371 L54.9316,71 Z M29.1992,3.9102 L29.4434,3.9102 L44.8242,44.291 L13.8184,44.291 L29.1992,3.9102 Z" id="Shape"></path>
                </g>
                <path d="M0,501 L2773,501" id="Baseline-M" stroke="#27AAE1" stroke-width="0.577"></path>
                <path d="M0,430.54 L2773,430.54" id="Capline-M" stroke="#27AAE1" stroke-width="0.577"></path>
                <g id="H-reference" transform="translate(76.000000, 860.000000)" fill="#27AAE1" fill-rule="nonzero">
                    <path d="M54.9316,71 L57.666,71 L30.5664,0.541 L28.0762,0.541 L0.976562,71 L3.66211,71 L12.9395,46.5371 L45.7031,46.5371 L54.9316,71 Z M29.1992,3.9102 L29.4434,3.9102 L44.8242,44.291 L13.8184,44.291 L29.1992,3.9102 Z" id="Shape"></path>
                </g>
                <path d="M0,931 L2773,931" id="Baseline-L" stroke="#27AAE1" stroke-width="0.577"></path>
                <path d="M0,860.54 L2773,860.54" id="Capline-L" stroke="#27AAE1" stroke-width="0.577"></path>
                <rect id="left-margin" fill="#00AEEF" fill-rule="nonzero" opacity="0.4" x="1121.78" y="405.79" width="12.4512" height="119.336"></rect>
                <rect id="right-margin" fill="#00AEEF" fill-rule="nonzero" opacity="0.4" x="1239.46" y="405.79" width="12.4512" height="119.336"></rect>
            </g>
            <g id="Symbols" transform="translate(496.000000, 622.000000)" fill="#000000" fill-rule="nonzero">
                <g id="Black-L" transform="translate(2360.160000, 837.000000)">
                    <path d="M127.066,57.8887 L135.514,57.8887 C148.453,57.8887 154.41,51.9316 154.41,38.9434 L154.41,19.0703 C154.41,6.082 148.453,0.125 135.514,0.125 L127.066,0.125 C114.127,0.125 108.17,6.082 108.17,19.0703 L108.17,38.9434 C108.17,51.9316 114.127,57.8887 127.066,57.8887 Z M18.9609,57.8887 L27.4082,57.8887 C40.3477,57.8887 46.3047,51.9316 46.3047,38.9434 L46.3047,19.0703 C46.3047,6.082 40.3477,0.125 27.4082,0.125 L18.9609,0.125 C6.0215,0.125 0.0645,6.082 0.0645,19.0703 L0.0645,38.9434 C0.0645,51.9316 6.0215,57.8887 18.9609,57.8887 Z M73.0137,57.8887 L81.4609,57.8887 C94.4,57.8887 100.357,51.9316 100.357,38.9434 L100.357,19.0703 C100.357,6.082 94.4,0.125 81.4609,0.125 L73.0137,0.125 C60.0742,0.125 54.1172,6.082 54.1172,19.0703 L54.1172,38.9434 C54.1172,51.9316 60.0742,57.8887 73.0137,57.8887 Z M18.9609,123.5137 L27.4082,123.5137 C40.3477,123.5137 46.3047,117.5078 46.3047,104.51953 L46.3047,84.6953 C46.3047,71.707 40.3477,65.7012 27.4082,65.7012 L18.9609,65.7012 C6.0215,65.7012 0.0645,71.707 0.0645,84.6953 L0.0645,104.51953 C0.0645,117.5078 6.0215,123.5137 18.9609,123.5137 Z M135.514,65.7012 C148.453,65.7012 154.41,71.707 154.41,84.6953 L154.41,84.6953 L154.41,104.51953 C154.41,117.5078 148.453,123.5137 135.514,123.5137 L135.514,123.5137 L127.066,123.5137 C114.127,123.5137 108.17,117.5078 108.17,104.51953 L108.17,104.51953 L108.17,84.6953 C108.17,71.707 114.127,65.7012 127.066,65.7012 L127.066,65.7012 Z M81.4564,65.7012 C94.3955,65.7012 100.3525,71.707 100.3525,84.6953 L100.3525,84.6953 L100.3525,104.51953 C100.3525,117.5078 94.3955,123.5137 81.4564,123.5137 L81.4564,123.5137 L73.0092,123.5137 C60.0697,123.5137 54.1127,117.5078 54.1127,104.51953 L54.1127,104.51953 L54.1127,84.6953 C54.1127,71.707 60.0697,65.7012 73.0092,65.7012 L73.0092,65.7012 Z M81.5541,81.4238 L72.9115,81.4238 C70.7631,81.4238 69.8353,82.4004 69.8353,84.5488 L69.8353,84.5488 L69.8353,104.66602 C69.8353,106.81445 70.7631,107.791 72.9115,107.791 L72.9115,107.791 L81.5541,107.791 C83.7025,107.791 84.6305,106.81445 84.6305,104.66602 L84.6305,104.66602 L84.6305,84.5488 C84.6305,82.4004 83.7025,81.4238 81.5541,81.4238 L81.5541,81.4238 Z" id="Shape"></path>
                </g>
                <g id="Heavy-L" transform="translate(2065.840000, 838.000000)">
                    <path d="M122.525,56.5957 L132.535,56.5957 C144.156,56.5957 149.625,51.127 149.625,39.4082 L149.625,17.3379 C149.625,5.5703 144.156,0.1504 132.535,0.1504 L122.525,0.1504 C110.904,0.1504 105.436,5.5703 105.436,17.3379 L105.436,39.4082 C105.436,51.127 110.904,56.5957 122.525,56.5957 Z M17.1543,56.5957 L27.2129,56.5957 C38.7852,56.5957 44.2539,51.127 44.2539,39.4082 L44.2539,17.3379 C44.2539,5.5703 38.7852,0.1504 27.2129,0.1504 L17.1543,0.1504 C5.5332,0.1504 0.0645,5.5703 0.0645,17.3379 L0.0645,39.4082 C0.0645,51.127 5.5332,56.5957 17.1543,56.5957 Z M69.8398,56.5957 L79.8496,56.5957 C91.471,56.5957 96.939,51.127 96.939,39.4082 L96.939,17.3379 C96.939,5.5703 91.471,0.1504 79.8496,0.1504 L69.8398,0.1504 C58.2188,0.1504 52.75,5.5703 52.75,17.3379 L52.75,39.4082 C52.75,51.127 58.2188,56.5957 69.8398,56.5957 Z M17.1543,121.4883 L27.2129,121.4883 C38.7852,121.4883 44.2539,116.0684 44.2539,104.30078 L44.2539,82.2305 C44.2539,70.5117 38.7852,65.043 27.2129,65.043 L17.1543,65.043 C5.5332,65.043 0.0645,70.5117 0.0645,82.2305 L0.0645,104.30078 C0.0645,116.0684 5.5332,121.4883 17.1543,121.4883 Z M132.535,65.043 C144.156,65.043 149.625,70.5117 149.625,82.2305 L149.625,82.2305 L149.625,104.30078 C149.625,116.0684 144.156,121.4883 132.535,121.4883 L132.535,121.4883 L122.525,121.4883 C110.904,121.4883 105.436,116.0684 105.436,104.30078 L105.436,104.30078 L105.436,82.2305 C105.436,70.5117 110.904,65.043 122.525,65.043 L122.525,65.043 Z M79.8451,65.043 C91.4665,65.043 96.9345,70.5117 96.9345,82.2305 L96.9345,82.2305 L96.9345,104.30078 C96.9345,116.0684 91.4665,121.4883 79.8451,121.4883 L79.8451,121.4883 L69.8353,121.4883 C58.2143,121.4883 52.7455,116.0684 52.7455,104.30078 L52.7455,104.30078 L52.7455,82.2305 C52.7455,70.5117 58.2143,65.043 69.8353,65.043 L69.8353,65.043 Z M79.8939,78.8613 L69.7865,78.8613 C67.5893,78.8613 66.5639,79.8867 66.5639,82.1816 L66.5639,82.1816 L66.5639,104.39844 C66.5639,106.6445 67.5893,107.7188 69.7865,107.7188 L69.7865,107.7188 L79.8939,107.7188 C82.14,107.7188 83.1166,106.6445 83.1166,104.39844 L83.1166,104.39844 L83.1166,82.1816 C83.1166,79.8867 82.14,78.8613 79.8939,78.8613 L79.8939,78.8613 Z" id="Shape"></path>
                </g>
                <g id="Bold-L" transform="translate(1771.790000, 839.000000)">
                    <path d="M117.447,55.2051 L129.215,55.2051 C139.42,55.2051 144.303,50.3711 144.303,40.0195 L144.303,15.459 C144.303,5.1074 139.42,0.2734 129.215,0.2734 L117.447,0.2734 C107.242,0.2734 102.359,5.1074 102.359,15.459 L102.359,40.0195 C102.359,50.3711 107.242,55.2051 117.447,55.2051 Z M15.1035,55.2051 L26.9199,55.2051 C37.0762,55.2051 41.959,50.3711 41.959,40.0195 L41.959,15.459 C41.959,5.1074 37.0762,0.2734 26.9199,0.2734 L15.1035,0.2734 C4.9473,0.2734 0.0645,5.1074 0.0645,15.459 L0.0645,40.0195 C0.0645,50.3711 4.9473,55.2051 15.1035,55.2051 Z M66.2754,55.2051 L78.0918,55.2051 C88.248,55.2051 93.131,50.3711 93.131,40.0195 L93.131,15.459 C93.131,5.1074 88.248,0.2734 78.0918,0.2734 L66.2754,0.2734 C56.1191,0.2734 51.2363,5.1074 51.2363,15.459 L51.2363,40.0195 C51.2363,50.3711 56.1191,55.2051 66.2754,55.2051 Z M15.1035,119.3652 L26.9199,119.3652 C37.0762,119.3652 41.959,114.5312 41.959,104.17969 L41.959,79.668 C41.959,69.2676 37.0762,64.4336 26.9199,64.4336 L15.1035,64.4336 C4.9473,64.4336 0.0645,69.2676 0.0645,79.668 L0.0645,104.17969 C0.0645,114.5312 4.9473,119.3652 15.1035,119.3652 Z M129.215,64.4336 C139.42,64.4336 144.303,69.2676 144.303,79.668 L144.303,79.668 L144.303,104.17969 C144.303,114.5312 139.42,119.3652 129.215,119.3652 L129.215,119.3652 L117.447,119.3652 C107.242,119.3652 102.359,114.5312 102.359,104.17969 L102.359,104.17969 L102.359,79.668 C102.359,69.2676 107.242,64.4336 117.447,64.4336 L117.447,64.4336 Z M78.0873,64.4336 C88.2435,64.4336 93.1265,69.2676 93.1265,79.668 L93.1265,79.668 L93.1265,104.17969 C93.1265,114.5312 88.2435,119.3652 78.0873,119.3652 L78.0873,119.3652 L66.2709,119.3652 C56.1146,119.3652 51.2318,114.5312 51.2318,104.17969 L51.2318,104.17969 L51.2318,79.668 C51.2318,69.2676 56.1146,64.4336 66.2709,64.4336 L66.2709,64.4336 Z M78.0873,76.1523 L66.3197,76.1523 C63.976,76.1523 62.9017,77.2266 62.9017,79.6191 L62.9017,79.6191 L62.9017,104.22852 C62.9017,106.5723 63.976,107.6953 66.3197,107.6953 L66.3197,107.6953 L78.0873,107.6953 C80.3822,107.6953 81.4564,106.5723 81.4564,104.22852 L81.4564,104.22852 L81.4564,79.6191 C81.4564,77.2266 80.3822,76.1523 78.0873,76.1523 L78.0873,76.1523 Z" id="Shape"></path>
                </g>
                <g id="Semibold-L" transform="translate(1476.940000, 840.000000)">
                    <path d="M113.932,53.9609 L126.92,53.9609 C136.1,53.9609 140.592,49.5664 140.592,40.1426 L140.592,13.873 C140.592,4.4492 136.1,0.0547 126.92,0.0547 L113.932,0.0547 C104.752,0.0547 100.26,4.4492 100.26,13.873 L100.26,40.1426 C100.26,49.5664 104.752,53.9609 113.932,53.9609 Z M13.7363,53.9609 L26.7246,53.9609 C35.9043,53.9609 40.3965,49.5664 40.3965,40.1426 L40.3965,13.873 C40.3965,4.4492 35.9043,0.0547 26.7246,0.0547 L13.7363,0.0547 C4.5566,0.0547 0.0645,4.4492 0.0645,13.873 L0.0645,40.1426 C0.0645,49.5664 4.5566,53.9609 13.7363,53.9609 Z M63.834,53.9609 L76.8223,53.9609 C86.002,53.9609 90.494,49.5664 90.494,40.1426 L90.494,13.873 C90.494,4.4492 86.002,0.0547 76.8223,0.0547 L63.834,0.0547 C54.6543,0.0547 50.1621,4.4492 50.1621,13.873 L50.1621,40.1426 C50.1621,49.5664 54.6543,53.9609 63.834,53.9609 Z M13.7363,117.584 L26.7246,117.584 C35.9043,117.584 40.3965,113.1895 40.3965,103.76562 L40.3965,77.5449 C40.3965,68.1211 35.9043,63.7266 26.7246,63.7266 L13.7363,63.7266 C4.5566,63.7266 0.0645,68.1211 0.0645,77.5449 L0.0645,103.76562 C0.0645,113.1895 4.5566,117.584 13.7363,117.584 Z M126.92,63.7266 C136.1,63.7266 140.592,68.1211 140.592,77.5449 L140.592,77.5449 L140.592,103.76562 C140.592,113.1895 136.1,117.584 126.92,117.584 L126.92,117.584 L113.932,117.584 C104.752,117.584 100.26,113.1895 100.26,103.76562 L100.26,103.76562 L100.26,77.5449 C100.26,68.1211 104.752,63.7266 113.932,63.7266 L113.932,63.7266 Z M76.8178,63.7266 C85.9975,63.7266 90.4895,68.1211 90.4895,77.5449 L90.4895,77.5449 L90.4895,103.76562 C90.4895,113.1895 85.9975,117.584 76.8178,117.584 L76.8178,117.584 L63.8295,117.584 C54.6498,117.584 50.1576,113.1895 50.1576,103.76562 L50.1576,103.76562 L50.1576,77.5449 C50.1576,68.1211 54.6498,63.7266 63.8295,63.7266 L63.8295,63.7266 Z M76.7689,73.9316 L63.9271,73.9316 C61.4857,73.9316 60.3627,75.0547 60.3627,77.5449 L60.3627,77.5449 L60.3627,103.81445 C60.3627,106.2559 61.4857,107.3789 63.9271,107.3789 L63.9271,107.3789 L76.7689,107.3789 C79.1615,107.3789 80.2846,106.2559 80.2846,103.81445 L80.2846,103.81445 L80.2846,77.5449 C80.2846,75.0547 79.1615,73.9316 76.7689,73.9316 L76.7689,73.9316 Z" id="Shape"></path>
                </g>
                <g id="Medium-L" transform="translate(1181.620000, 840.000000)">
                    <path d="M111.246,53.7656 L125.211,53.7656 C133.609,53.7656 137.809,49.6641 137.809,40.9727 L137.809,13.4336 C137.809,4.7422 133.609,0.6895 125.211,0.6895 L111.246,0.6895 C102.848,0.6895 98.648,4.7422 98.648,13.4336 L98.648,40.9727 C98.648,49.6641 102.848,53.7656 111.246,53.7656 Z M12.6621,53.7656 L26.5781,53.7656 C35.0254,53.7656 39.1758,49.6641 39.1758,40.9727 L39.1758,13.4336 C39.1758,4.7422 35.0254,0.6895 26.5781,0.6895 L12.6621,0.6895 C4.2637,0.6895 0.0645,4.7422 0.0645,13.4336 L0.0645,40.9727 C0.0645,49.6641 4.2637,53.7656 12.6621,53.7656 Z M61.9785,53.7656 L75.8945,53.7656 C84.342,53.7656 88.492,49.6641 88.492,40.9727 L88.492,13.4336 C88.492,4.7422 84.342,0.6895 75.8945,0.6895 L61.9785,0.6895 C53.5312,0.6895 49.3809,4.7422 49.3809,13.4336 L49.3809,40.9727 C49.3809,49.6641 53.5312,53.7656 61.9785,53.7656 Z M12.6621,116.998 L26.5781,116.998 C35.0254,116.998 39.1758,112.9453 39.1758,104.2051 L39.1758,76.7148 C39.1758,67.9746 35.0254,63.9219 26.5781,63.9219 L12.6621,63.9219 C4.2637,63.9219 0.0645,67.9746 0.0645,76.7148 L0.0645,104.2051 C0.0645,112.9453 4.2637,116.998 12.6621,116.998 Z M125.211,63.9219 C133.609,63.9219 137.809,67.9746 137.809,76.7148 L137.809,76.7148 L137.809,104.2051 C137.809,112.9453 133.609,116.998 125.211,116.998 L125.211,116.998 L111.246,116.998 C102.848,116.998 98.648,112.9453 98.648,104.2051 L98.648,104.2051 L98.648,76.7148 C98.648,67.9746 102.848,63.9219 111.246,63.9219 L111.246,63.9219 Z M75.89,63.9219 C84.3375,63.9219 88.4875,67.9746 88.4875,76.7148 L88.4875,76.7148 L88.4875,104.2051 C88.4875,112.9453 84.3375,116.998 75.89,116.998 L75.89,116.998 L61.974,116.998 C53.5267,116.998 49.3764,112.9453 49.3764,104.2051 L49.3764,104.2051 L49.3764,76.7148 C49.3764,67.9746 53.5267,63.9219 61.974,63.9219 L61.974,63.9219 Z M75.8412,73.0527 L62.0717,73.0527 C59.5814,73.0527 58.4584,74.1758 58.4584,76.7148 L58.4584,76.7148 L58.4584,104.2539 C58.4584,106.7441 59.5814,107.916 62.0717,107.916 L62.0717,107.916 L75.8412,107.916 C78.2826,107.916 79.4057,106.7441 79.4057,104.2539 L79.4057,104.2539 L79.4057,76.7148 C79.4057,74.1758 78.2826,73.0527 75.8412,73.0527 L75.8412,73.0527 Z" id="Shape"></path>
                </g>
                <g id="Regular-L" transform="translate(886.740000, 841.000000)">
                    <path d="M107.779,52.4727 L122.965,52.4727 C130.387,52.4727 134.146,48.8594 134.146,41.0957 L134.146,11.8477 C134.146,4.084 130.387,0.4707 122.965,0.4707 L107.779,0.4707 C100.357,0.4707 96.598,4.084 96.598,11.8477 L96.598,41.0957 C96.598,48.8594 100.357,52.4727 107.779,52.4727 Z M11.2949,52.4727 L26.4316,52.4727 C33.8535,52.4727 37.6133,48.8594 37.6133,41.0957 L37.6133,11.8477 C37.6133,4.084 33.8535,0.4707 26.4316,0.4707 L11.2949,0.4707 C3.873,0.4707 0.0645,4.084 0.0645,11.8477 L0.0645,41.0957 C0.0645,48.8594 3.873,52.4727 11.2949,52.4727 Z M59.5371,52.4727 L74.6738,52.4727 C82.0957,52.4727 85.904,48.8594 85.904,41.0957 L85.904,11.8477 C85.904,4.084 82.0957,0.4707 74.6738,0.4707 L59.5371,0.4707 C52.1152,0.4707 48.3066,4.084 48.3066,11.8477 L48.3066,41.0957 C48.3066,48.8594 52.1152,52.4727 59.5371,52.4727 Z M11.2949,115.2168 L26.4316,115.2168 C33.8535,115.2168 37.6133,111.6035 37.6133,103.8398 L37.6133,74.5918 C37.6133,66.8281 33.8535,63.166 26.4316,63.166 L11.2949,63.166 C3.873,63.166 0.0645,66.8281 0.0645,74.5918 L0.0645,103.8398 C0.0645,111.6035 3.873,115.2168 11.2949,115.2168 Z M122.965,63.166 C130.387,63.166 134.146,66.8281 134.146,74.5918 L134.146,74.5918 L134.146,103.8398 C134.146,111.6035 130.387,115.2168 122.965,115.2168 L122.965,115.2168 L107.779,115.2168 C100.357,115.2168 96.598,111.6035 96.598,103.8398 L96.598,103.8398 L96.598,74.5918 C96.598,66.8281 100.357,63.166 107.779,63.166 L107.779,63.166 Z M74.6693,63.166 C82.0912,63.166 85.8995,66.8281 85.8995,74.5918 L85.8995,74.5918 L85.8995,103.8398 C85.8995,111.6035 82.0912,115.2168 74.6693,115.2168 L74.6693,115.2168 L59.5326,115.2168 C52.1107,115.2168 48.3021,111.6035 48.3021,103.8398 L48.3021,103.8398 L48.3021,74.5918 C48.3021,66.8281 52.1107,63.166 59.5326,63.166 L59.5326,63.166 Z M74.5717,70.832 L59.6791,70.832 C57.14,70.832 55.9682,72.0527 55.9682,74.6406 L55.9682,74.6406 L55.9682,103.791 C55.9682,106.3789 57.14,107.5508 59.6791,107.5508 L59.6791,107.5508 L74.5717,107.5508 C77.0619,107.5508 78.2338,106.3789 78.2338,103.791 L78.2338,103.791 L78.2338,74.6406 C78.2338,72.0527 77.0619,70.832 74.5717,70.832 L74.5717,70.832 Z" id="Shape"></path>
                </g>
                <g id="Light-L" transform="translate(591.180000, 842.000000)">
                    <path d="M105.338,51.3262 L121.744,51.3262 C128.385,51.3262 131.852,48.1523 131.852,41.1211 L131.852,10.5059 C131.852,3.4746 128.385,0.3008 121.744,0.3008 L105.338,0.3008 C98.697,0.3008 95.279,3.4746 95.279,10.5059 L95.279,41.1211 C95.279,48.1523 98.697,51.3262 105.338,51.3262 Z M10.1719,51.3262 L26.5293,51.3262 C33.1699,51.3262 36.6367,48.1523 36.6367,41.1211 L36.6367,10.5059 C36.6367,3.4746 33.1699,0.3008 26.5293,0.3008 L10.1719,0.3008 C3.5312,0.3008 0.0645,3.4746 0.0645,10.5059 L0.0645,41.1211 C0.0645,48.1523 3.5312,51.3262 10.1719,51.3262 Z M57.7305,51.3262 L74.1367,51.3262 C80.7773,51.3262 84.244,48.1523 84.244,41.1211 L84.244,10.5059 C84.244,3.4746 80.7773,0.3008 74.1367,0.3008 L57.7305,0.3008 C51.0898,0.3008 47.6719,3.4746 47.6719,10.5059 L47.6719,41.1211 C47.6719,48.1523 51.0898,51.3262 57.7305,51.3262 Z M10.1719,113.4355 L26.5293,113.4355 C33.1699,113.4355 36.6367,110.2129 36.6367,103.2305 L36.6367,72.5664 C36.6367,65.5352 33.1699,62.3613 26.5293,62.3613 L10.1719,62.3613 C3.5312,62.3613 0.0645,65.5352 0.0645,72.5664 L0.0645,103.2305 C0.0645,110.2129 3.5312,113.4355 10.1719,113.4355 Z M121.744,62.3613 C128.385,62.3613 131.852,65.5352 131.852,72.5664 L131.852,72.5664 L131.852,103.2305 C131.852,110.2129 128.385,113.4355 121.744,113.4355 L121.744,113.4355 L105.338,113.4355 C98.697,113.4355 95.279,110.2129 95.279,103.2305 L95.279,103.2305 L95.279,72.5664 C95.279,65.5352 98.697,62.3613 105.338,62.3613 L105.338,62.3613 Z M74.1322,62.3613 C80.7728,62.3613 84.2395,65.5352 84.2395,72.5664 L84.2395,72.5664 L84.2395,103.2305 C84.2395,110.2129 80.7728,113.4355 74.1322,113.4355 L74.1322,113.4355 L57.726,113.4355 C51.0853,113.4355 47.6674,110.2129 47.6674,103.2305 L47.6674,103.2305 L47.6674,72.5664 C47.6674,65.5352 51.0853,62.3613 57.726,62.3613 L57.726,62.3613 Z M73.9857,68.3672 L57.9213,68.3672 C54.8939,68.3672 53.6732,69.6855 53.6732,72.6641 L53.6732,72.6641 L53.6732,103.1328 C53.6732,106.1113 54.8939,107.4297 57.9213,107.4297 L57.9213,107.4297 L73.9857,107.4297 C76.9643,107.4297 78.2338,106.1113 78.2338,103.1328 L78.2338,103.1328 L78.2338,72.6641 C78.2338,69.6855 76.9643,68.3672 73.9857,68.3672 L73.9857,68.3672 Z" id="Shape"></path>
                </g>
                <g id="Thin-L" transform="translate(296.027000, 843.000000)">
                    <path d="M102.115,50.1309 L120.133,50.1309 C125.748,50.1309 128.727,47.5918 128.727,41.5371 L128.727,9.0664 C128.727,3.0117 125.748,0.4238 120.133,0.4238 L102.115,0.4238 C96.5,0.4238 93.473,3.0117 93.473,9.0664 L93.473,41.5371 C93.473,47.5918 96.5,50.1309 102.115,50.1309 Z M8.6582,50.1309 L26.7246,50.1309 C32.291,50.1309 35.3184,47.5918 35.3184,41.5371 L35.3184,9.0664 C35.3184,3.0117 32.291,0.4238 26.7246,0.4238 L8.6582,0.4238 C3.0918,0.4238 0.0645,3.0117 0.0645,9.0664 L0.0645,41.5371 C0.0645,47.5918 3.0918,50.1309 8.6582,50.1309 Z M55.3867,50.1309 L73.4531,50.1309 C79.0195,50.1309 82.0469,47.5918 82.0469,41.5371 L82.0469,9.0664 C82.0469,3.0117 79.0195,0.4238 73.4531,0.4238 L55.3867,0.4238 C49.7715,0.4238 46.793,3.0117 46.793,9.0664 L46.793,41.5371 C46.793,47.5918 49.7715,50.1309 55.3867,50.1309 Z M8.6582,111.3613 L26.7246,111.3613 C32.291,111.3613 35.3184,108.7734 35.3184,102.7188 L35.3184,70.248 C35.3184,64.1934 32.291,61.6055 26.7246,61.6055 L8.6582,61.6055 C3.0918,61.6055 0.0645,64.1934 0.0645,70.248 L0.0645,102.7188 C0.0645,108.7734 3.0918,111.3613 8.6582,111.3613 Z M120.133,61.6055 C125.748,61.6055 128.727,64.1934 128.727,70.248 L128.727,70.248 L128.727,102.7188 C128.727,108.7734 125.748,111.3613 120.133,111.3613 L120.133,111.3613 L102.115,111.3613 C96.5,111.3613 93.473,108.7734 93.473,102.7188 L93.473,102.7188 L93.473,70.248 C93.473,64.1934 96.5,61.6055 102.115,61.6055 L102.115,61.6055 Z M73.4516,61.6055 C79.018,61.6055 82.0454,64.1934 82.0454,70.248 L82.0454,70.248 L82.0454,102.7188 C82.0454,108.7734 79.018,111.3613 73.4516,111.3613 L73.4516,111.3613 L55.3852,111.3613 C49.77,111.3613 46.7915,108.7734 46.7915,102.7188 L46.7915,102.7188 L46.7915,70.248 C46.7915,64.1934 49.77,61.6055 55.3852,61.6055 L55.3852,61.6055 Z M73.2563,65.4141 L55.5317,65.4141 C51.9673,65.4141 50.6001,66.8301 50.6001,70.3945 L50.6001,70.3945 L50.6001,102.5723 C50.6001,106.1367 51.9673,107.5527 55.5317,107.5527 L55.5317,107.5527 L73.2563,107.5527 C76.8208,107.5527 78.2368,106.1367 78.2368,102.5723 L78.2368,102.5723 L78.2368,70.3945 C78.2368,66.8301 76.8208,65.4141 73.2563,65.4141 L73.2563,65.4141 Z" id="Shape"></path>
                </g>
                <g id="Ultralight-L" transform="translate(0.097000, 844.000000)">
                    <path d="M100.406,49.0332 L119.352,49.0332 C124.381,49.0332 127.164,46.7871 127.164,41.2207 L127.164,7.8223 C127.164,2.2559 124.381,0.0098 119.352,0.0098 L100.406,0.0098 C95.377,0.0098 92.594,2.2559 92.594,7.8223 L92.594,41.2207 C92.594,46.7871 95.377,49.0332 100.406,49.0332 Z M7.877,49.0332 L26.8223,49.0332 C31.8516,49.0332 34.6348,46.7871 34.6348,41.2207 L34.6348,7.8223 C34.6348,2.2559 31.8516,0.0098 26.8223,0.0098 L7.877,0.0098 C2.8477,0.0098 0.0645,2.2559 0.0645,7.8223 L0.0645,41.2207 C0.0645,46.7871 2.8477,49.0332 7.877,49.0332 Z M54.166,49.0332 L73.0625,49.0332 C78.1406,49.0332 80.9238,46.7871 80.9238,41.2207 L80.9238,7.8223 C80.9238,2.2559 78.1406,0.0098 73.0625,0.0098 L54.166,0.0098 C49.1367,0.0098 46.3535,2.2559 46.3535,7.8223 L46.3535,41.2207 C46.3535,46.7871 49.1367,49.0332 54.166,49.0332 Z M7.877,109.7754 L26.8223,109.7754 C31.8516,109.7754 34.6348,107.5293 34.6348,101.9629 L34.6348,68.5645 C34.6348,62.998 31.8516,60.752 26.8223,60.752 L7.877,60.752 C2.8477,60.752 0.0645,62.998 0.0645,68.5645 L0.0645,101.9629 C0.0645,107.5293 2.8477,109.7754 7.877,109.7754 Z M119.352,60.752 C124.381,60.752 127.164,62.998 127.164,68.5645 L127.164,68.5645 L127.164,101.9629 C127.164,107.5293 124.381,109.7754 119.352,109.7754 L119.352,109.7754 L100.406,109.7754 C95.377,109.7754 92.594,107.5293 92.594,101.9629 L92.594,101.9629 L92.594,68.5645 C92.594,62.998 95.377,60.752 100.406,60.752 L100.406,60.752 Z M73.061,60.752 C78.1391,60.752 80.9223,62.998 80.9223,68.5645 L80.9223,68.5645 L80.9223,101.9629 C80.9223,107.5293 78.1391,109.7754 73.061,109.7754 L73.061,109.7754 L54.1645,109.7754 C49.1352,109.7754 46.352,107.5293 46.352,101.9629 L46.352,101.9629 L46.352,68.5645 C46.352,62.998 49.1352,60.752 54.1645,60.752 L54.1645,60.752 Z M72.9145,63.4375 L54.311,63.4375 C50.5024,63.4375 48.9887,64.9023 48.9887,68.7109 L48.9887,68.7109 L48.9887,101.8164 C48.9887,105.625 50.5024,107.1387 54.311,107.1387 L54.311,107.1387 L72.9145,107.1387 C76.7231,107.1387 78.2368,105.625 78.2368,101.8164 L78.2368,101.8164 L78.2368,68.7109 C78.2368,64.9023 76.7231,63.4375 72.9145,63.4375 L72.9145,63.4375 Z" id="Shape"></path>
                </g>
                <g id="Black-M" transform="translate(2374.550000, 420.000000)">
                    <path d="M103.674,46.1582 L108.801,46.1582 C120.129,46.1582 125.256,40.9824 125.256,29.6543 L125.256,16.5195 C125.256,5.1914 120.129,0.0645 108.801,0.0645 L103.674,0.0645 C92.346,0.0645 87.2188,5.1914 87.2188,16.5195 L87.2188,29.6543 C87.2188,40.9824 92.346,46.1582 103.674,46.1582 Z M16.9551,46.1582 L22.0332,46.1582 C33.3613,46.1582 38.5371,40.9824 38.5371,29.6543 L38.5371,16.5195 C38.5371,5.1914 33.3613,0.0645 22.0332,0.0645 L16.9551,0.0645 C5.627,0.0645 0.4512,5.1914 0.4512,16.5195 L0.4512,29.6543 C0.4512,40.9824 5.627,46.1582 16.9551,46.1582 Z M60.3145,46.1582 L65.4414,46.1582 C76.7695,46.1582 81.8965,40.9824 81.8965,29.6543 L81.8965,16.5195 C81.8965,5.1914 76.7695,0.0645 65.4414,0.0645 L60.3145,0.0645 C48.9863,0.0645 43.8105,5.1914 43.8105,16.5195 L43.8105,29.6543 C43.8105,40.9824 48.9863,46.1582 60.3145,46.1582 Z M16.9551,97.5742 L22.0332,97.5742 C33.3613,97.5742 38.5371,92.39844 38.5371,81.07031 L38.5371,67.9355 C38.5371,56.6074 33.3613,51.4316 22.0332,51.4316 L16.9551,51.4316 C5.627,51.4316 0.4512,56.6074 0.4512,67.9355 L0.4512,81.07031 C0.4512,92.39844 5.627,97.5742 16.9551,97.5742 Z M108.801,51.4316 C120.129,51.4316 125.256,56.6074 125.256,67.9355 L125.256,67.9355 L125.256,81.07031 C125.256,92.39844 120.129,97.5742 108.801,97.5742 L108.801,97.5742 L103.674,97.5742 C92.346,97.5742 87.2188,92.39844 87.2188,81.07031 L87.2188,81.07031 L87.2188,67.9355 C87.2188,56.6074 92.346,51.4316 103.674,51.4316 L103.674,51.4316 Z M65.4402,51.4316 C76.7683,51.4316 81.8953,56.6074 81.8953,67.9355 L81.8953,67.9355 L81.8953,81.07031 C81.8953,92.39844 76.7683,97.5742 65.4402,97.5742 L65.4402,97.5742 L60.3133,97.5742 C48.9851,97.5742 43.8093,92.39844 43.8093,81.07031 L43.8093,81.07031 L43.8093,67.9355 C43.8093,56.6074 48.9851,51.4316 60.3133,51.4316 L60.3133,51.4316 Z M65.5379,65.2988 L60.1668,65.2988 C58.409,65.2988 57.6765,66.0312 57.6765,67.7891 L57.6765,67.7891 L57.6765,81.2168 C57.6765,82.97461 58.409,83.707031 60.1668,83.707031 L60.1668,83.707031 L65.5379,83.707031 C67.2957,83.707031 68.0281,82.97461 68.0281,81.2168 L68.0281,81.2168 L68.0281,67.7891 C68.0281,66.0312 67.2957,65.2988 65.5379,65.2988 L65.5379,65.2988 Z" id="Shape"></path>
                </g>
                <g id="Heavy-M" transform="translate(2080.130000, 420.000000)">
                    <path d="M99.377,45.8164 L105.871,45.8164 C115.979,45.8164 120.666,41.1777 120.666,30.9727 L120.666,15.7871 C120.666,5.6309 115.979,0.9434 105.871,0.9434 L99.377,0.9434 C89.221,0.9434 84.582,5.6309 84.582,15.7871 L84.582,30.9727 C84.582,41.1777 89.221,45.8164 99.377,45.8164 Z M15.2461,45.8164 L21.7402,45.8164 C31.8965,45.8164 36.5352,41.1777 36.5352,30.9727 L36.5352,15.7871 C36.5352,5.6309 31.8965,0.9434 21.7402,0.9434 L15.2461,0.9434 C5.1387,0.9434 0.4512,5.6309 0.4512,15.7871 L0.4512,30.9727 C0.4512,41.1777 5.1387,45.8164 15.2461,45.8164 Z M57.2871,45.8164 L63.8301,45.8164 C73.9375,45.8164 78.625,41.1777 78.625,30.9727 L78.625,15.7871 C78.625,5.6309 73.9375,0.9434 63.8301,0.9434 L57.2871,0.9434 C47.1797,0.9434 42.4922,5.6309 42.4922,15.7871 L42.4922,30.9727 C42.4922,41.1777 47.1797,45.8164 57.2871,45.8164 Z M15.2461,96.6465 L21.7402,96.6465 C31.8965,96.6465 36.5352,92.00781 36.5352,81.80273 L36.5352,66.6172 C36.5352,56.4609 31.8965,51.7734 21.7402,51.7734 L15.2461,51.7734 C5.1387,51.7734 0.4512,56.4609 0.4512,66.6172 L0.4512,81.80273 C0.4512,92.00781 5.1387,96.6465 15.2461,96.6465 Z M105.871,51.7734 C115.979,51.7734 120.666,56.4609 120.666,66.6172 L120.666,66.6172 L120.666,81.80273 C120.666,92.00781 115.979,96.6465 105.871,96.6465 L105.871,96.6465 L99.377,96.6465 C89.221,96.6465 84.582,92.00781 84.582,81.80273 L84.582,81.80273 L84.582,66.6172 C84.582,56.4609 89.221,51.7734 99.377,51.7734 L99.377,51.7734 Z M63.8289,51.7734 C73.9363,51.7734 78.6238,56.4609 78.6238,66.6172 L78.6238,66.6172 L78.6238,81.80273 C78.6238,92.00781 73.9363,96.6465 63.8289,96.6465 L63.8289,96.6465 L57.2859,96.6465 C47.1785,96.6465 42.491,92.00781 42.491,81.80273 L42.491,81.80273 L42.491,66.6172 C42.491,56.4609 47.1785,51.7734 57.2859,51.7734 L57.2859,51.7734 Z M63.8777,63.9805 L57.2371,63.9805 C55.4793,63.9805 54.698,64.7617 54.698,66.5195 L54.698,66.5195 L54.698,81.94922 C54.698,83.658203 55.4793,84.439453 57.2371,84.439453 L57.2371,84.439453 L63.8777,84.439453 C65.6355,84.439453 66.4168,83.658203 66.4168,81.94922 L66.4168,81.94922 L66.4168,66.5195 C66.4168,64.7617 65.6355,63.9805 63.8777,63.9805 L63.8777,63.9805 Z" id="Shape"></path>
                </g>
                <g id="Bold-M" transform="translate(1786.010000, 421.000000)">
                    <path d="M94.494,44.4746 L102.6,44.4746 C111.34,44.4746 115.49,40.3242 115.49,31.4375 L115.49,13.957 C115.49,5.0703 111.34,0.9688 102.6,0.9688 L94.494,0.9688 C85.7539,0.9688 81.6035,5.0703 81.6035,13.957 L81.6035,31.4375 C81.6035,40.3242 85.7539,44.4746 94.494,44.4746 Z M13.3418,44.4746 L21.4473,44.4746 C30.1875,44.4746 34.3379,40.3242 34.3379,31.4375 L34.3379,13.957 C34.3379,5.0703 30.1875,0.9688 21.4473,0.9688 L13.3418,0.9688 C4.6016,0.9688 0.4512,5.0703 0.4512,13.957 L0.4512,31.4375 C0.4512,40.3242 4.6016,44.4746 13.3418,44.4746 Z M53.918,44.4746 L62.0234,44.4746 C70.7637,44.4746 74.9141,40.3242 74.9141,31.4375 L74.9141,13.957 C74.9141,5.0703 70.7637,0.9688 62.0234,0.9688 L53.918,0.9688 C45.1777,0.9688 41.0273,5.0703 41.0273,13.957 L41.0273,31.4375 C41.0273,40.3242 45.1777,44.4746 53.918,44.4746 Z M13.3418,94.6699 L21.4473,94.6699 C30.1875,94.6699 34.3379,90.51953 34.3379,81.68164 L34.3379,64.1523 C34.3379,55.2656 30.1875,51.1641 21.4473,51.1641 L13.3418,51.1641 C4.6016,51.1641 0.4512,55.2656 0.4512,64.1523 L0.4512,81.68164 C0.4512,90.51953 4.6016,94.6699 13.3418,94.6699 Z M102.6,51.1641 C111.34,51.1641 115.49,55.2656 115.49,64.1523 L115.49,64.1523 L115.49,81.68164 C115.49,90.51953 111.34,94.6699 102.6,94.6699 L102.6,94.6699 L94.494,94.6699 C85.7539,94.6699 81.6035,90.51953 81.6035,81.68164 L81.6035,81.68164 L81.6035,64.1523 C81.6035,55.2656 85.7539,51.1641 94.494,51.1641 L94.494,51.1641 Z M62.0222,51.1641 C70.7625,51.1641 74.9129,55.2656 74.9129,64.1523 L74.9129,64.1523 L74.9129,81.68164 C74.9129,90.51953 70.7625,94.6699 62.0222,94.6699 L62.0222,94.6699 L53.9168,94.6699 C45.1765,94.6699 41.0261,90.51953 41.0261,81.68164 L41.0261,81.68164 L41.0261,64.1523 C41.0261,55.2656 45.1765,51.1641 53.9168,51.1641 L53.9168,51.1641 Z M62.0222,61.5156 L53.9168,61.5156 C52.159,61.5156 51.3777,62.3457 51.3777,64.1035 L51.3777,64.1035 L51.3777,81.73047 C51.3777,83.488281 52.159,84.26953 53.9168,84.26953 L53.9168,84.26953 L62.0222,84.26953 C63.7312,84.26953 64.5613,83.488281 64.5613,81.73047 L64.5613,81.73047 L64.5613,64.1035 C64.5613,62.3457 63.7312,61.5156 62.0222,61.5156 L62.0222,61.5156 Z" id="Shape"></path>
                </g>
                <g id="Semibold-M" transform="translate(1491.080000, 422.000000)">
                    <path d="M91.174,43.2305 L100.305,43.2305 C108.166,43.2305 111.926,39.4707 111.926,31.4629 L111.926,12.3711 C111.926,4.4121 108.166,0.6523 100.305,0.6523 L91.174,0.6523 C83.3613,0.6523 79.5527,4.4121 79.5527,12.3711 L79.5527,31.4629 C79.5527,39.4707 83.3613,43.2305 91.174,43.2305 Z M12.0723,43.2305 L21.2031,43.2305 C29.0156,43.2305 32.8242,39.4707 32.8242,31.4629 L32.8242,12.3711 C32.8242,4.4121 29.0156,0.6523 21.2031,0.6523 L12.0723,0.6523 C4.2109,0.6523 0.4512,4.4121 0.4512,12.3711 L0.4512,31.4629 C0.4512,39.4707 4.2109,43.2305 12.0723,43.2305 Z M51.623,43.2305 L60.7539,43.2305 C68.6152,43.2305 72.375,39.4707 72.375,31.4629 L72.375,12.3711 C72.375,4.4121 68.6152,0.6523 60.7539,0.6523 L51.623,0.6523 C43.7617,0.6523 40.002,4.4121 40.002,12.3711 L40.002,31.4629 C40.002,39.4707 43.7617,43.2305 51.623,43.2305 Z M12.0723,92.9863 L21.2031,92.9863 C29.0156,92.9863 32.8242,89.22656 32.8242,81.21875 L32.8242,62.1758 C32.8242,54.168 29.0156,50.4082 21.2031,50.4082 L12.0723,50.4082 C4.2109,50.4082 0.4512,54.168 0.4512,62.1758 L0.4512,81.21875 C0.4512,89.22656 4.2109,92.9863 12.0723,92.9863 Z M100.305,50.4082 C108.166,50.4082 111.926,54.168 111.926,62.1758 L111.926,62.1758 L111.926,81.21875 C111.926,89.22656 108.166,92.9863 100.305,92.9863 L100.305,92.9863 L91.174,92.9863 C83.3613,92.9863 79.5527,89.22656 79.5527,81.21875 L79.5527,81.21875 L79.5527,62.1758 C79.5527,54.168 83.3613,50.4082 91.174,50.4082 L91.174,50.4082 Z M60.7527,50.4082 C68.614,50.4082 72.3738,54.168 72.3738,62.1758 L72.3738,62.1758 L72.3738,81.21875 C72.3738,89.22656 68.614,92.9863 60.7527,92.9863 L60.7527,92.9863 L51.6218,92.9863 C43.7605,92.9863 40.0008,89.22656 40.0008,81.21875 L40.0008,81.21875 L40.0008,62.1758 C40.0008,54.168 43.7605,50.4082 51.6218,50.4082 L51.6218,50.4082 Z M60.7527,59.4902 L51.6707,59.4902 C49.9129,59.4902 49.1316,60.3691 49.1316,62.127 L49.1316,62.127 L49.1316,81.267578 C49.1316,83.02539 49.9129,83.85547 51.6707,83.85547 L51.6707,83.85547 L60.7527,83.85547 C62.4617,83.85547 63.2429,83.02539 63.2429,81.267578 L63.2429,81.267578 L63.2429,62.127 C63.2429,60.3691 62.4617,59.4902 60.7527,59.4902 L60.7527,59.4902 Z" id="Shape"></path>
                </g>
                <g id="Medium-M" transform="translate(1195.710000, 423.000000)">
                    <path d="M88.635,42.0352 L98.596,42.0352 C105.725,42.0352 109.24,38.5684 109.24,31.2441 L109.24,10.9805 C109.24,3.6562 105.725,0.1895 98.596,0.1895 L88.635,0.1895 C81.5059,0.1895 78.0391,3.6562 78.0391,10.9805 L78.0391,31.2441 C78.0391,38.5684 81.5059,42.0352 88.635,42.0352 Z M11.0957,42.0352 L21.0078,42.0352 C28.1367,42.0352 31.6523,38.5684 31.6523,31.2441 L31.6523,10.9805 C31.6523,3.6562 28.1367,0.1895 21.0078,0.1895 L11.0957,0.1895 C3.918,0.1895 0.4512,3.6562 0.4512,10.9805 L0.4512,31.2441 C0.4512,38.5684 3.918,42.0352 11.0957,42.0352 Z M49.8652,42.0352 L59.8262,42.0352 C66.9551,42.0352 70.4219,38.5684 70.4219,31.2441 L70.4219,10.9805 C70.4219,3.6562 66.9551,0.1895 59.8262,0.1895 L49.8652,0.1895 C42.7363,0.1895 39.2207,3.6562 39.2207,10.9805 L39.2207,31.2441 C39.2207,38.5684 42.7363,42.0352 49.8652,42.0352 Z M11.0957,91.4492 L21.0078,91.4492 C28.1367,91.4492 31.6523,87.98242 31.6523,80.658203 L31.6523,60.3945 C31.6523,53.0703 28.1367,49.6035 21.0078,49.6035 L11.0957,49.6035 C3.918,49.6035 0.4512,53.0703 0.4512,60.3945 L0.4512,80.658203 C0.4512,87.98242 3.918,91.4492 11.0957,91.4492 Z M98.596,49.6035 C105.725,49.6035 109.24,53.0703 109.24,60.3945 L109.24,60.3945 L109.24,80.658203 C109.24,87.98242 105.725,91.4492 98.596,91.4492 L98.596,91.4492 L88.635,91.4492 C81.5059,91.4492 78.0391,87.98242 78.0391,80.658203 L78.0391,80.658203 L78.0391,60.3945 C78.0391,53.0703 81.5059,49.6035 88.635,49.6035 L88.635,49.6035 Z M59.825,49.6035 C66.9539,49.6035 70.4207,53.0703 70.4207,60.3945 L70.4207,60.3945 L70.4207,80.658203 C70.4207,87.98242 66.9539,91.4492 59.825,91.4492 L59.825,91.4492 L49.864,91.4492 C42.7351,91.4492 39.2195,87.98242 39.2195,80.658203 L39.2195,80.658203 L39.2195,60.3945 C39.2195,53.0703 42.7351,49.6035 49.864,49.6035 L49.864,49.6035 Z M59.7761,57.7578 L49.9129,57.7578 C48.2039,57.7578 47.3738,58.5879 47.3738,60.3945 L47.3738,60.3945 L47.3738,80.707031 C47.3738,82.46484 48.2039,83.29492 49.9129,83.29492 L49.9129,83.29492 L59.7761,83.29492 C61.4851,83.29492 62.3152,82.46484 62.3152,80.707031 L62.3152,80.707031 L62.3152,60.3945 C62.3152,58.5879 61.4851,57.7578 59.7761,57.7578 L59.7761,57.7578 Z" id="Shape"></path>
                </g>
                <g id="Regular-M" transform="translate(900.780000, 424.000000)">
                    <path d="M20.91,49.03 C27.012931,49.03 30.1314952,52.0433413 30.2372178,58.2218898 L30.24,58.55 L30.24,80.47 C30.24,86.8087931 27.2266587,89.8927913 21.2284511,89.9972518 L20.91,90 L9.91,90 C3.81689655,90 0.688843639,86.9770006 0.582791012,80.7506609 L0.58,80.42 L0.58,58.55 C0.58,52.2603448 3.60299941,49.1385612 9.59204846,49.0327832 L9.91,49.03 L20.91,49.03 Z M85.5,49.03 L96.5,49.03 C102.593103,49.03 105.721156,52.0433413 105.827209,58.2218898 L105.83,58.55 L105.83,80.47 C105.83,86.8087931 102.807001,89.8927913 96.8179515,89.9972518 L96.5,90 L85.5,90 C79.397069,90 76.3267955,86.9770006 76.17528,80.7506609 L76.17,80.42 L76.17,58.55 C76.17,52.2603448 79.1833413,49.1385612 85.1815489,49.0327832 L85.5,49.03 L96.5,49.03 Z M58.74,49 C64.94,49 68.06,52.15 68.06,58.55 L68.06,58.55 L68.06,80.39 C68.06,86.84 64.94,89.92 58.74,89.92 L58.74,89.92 L47.74,89.92 C41.54,89.92 38.42,86.84 38.42,80.39 L38.42,80.39 L38.42,58.52 C38.42,52.12 41.54,49 47.74,49 L47.74,49 Z M58.64,55.91 L47.85,55.91 C46.09,55.91 45.26,56.79 45.26,58.6 L45.26,58.6 L45.26,80.42 C45.26,82.18 46.09,83.06 47.85,83.06 L47.85,83.06 L58.68,83.06 C60.39,83.06 61.22,82.18 61.22,80.42 L61.22,80.42 L61.18,58.6 C61.18,56.79 60.35,55.91 58.64,55.91 L58.64,55.91 Z M96.5,0.05 C102.593103,0.05 105.721156,3.02470868 105.827209,9.24938317 L105.83,9.58 L105.83,31.43 C105.83,37.7687931 102.807001,40.8914239 96.8179515,40.9972165 L96.5,41 L85.5,41 C79.397069,41 76.3267955,37.9576843 76.17528,31.7306785 L76.17,31.4 L76.17,9.58 C76.17,3.2412069 79.1833413,0.15720868 85.1815489,0.0527482164 L85.5,0.05 L96.5,0.05 Z M20.91,0.05 C27.012931,0.05 30.1314952,3.02470868 30.2372178,9.24938317 L30.24,9.58 L30.24,31.43 C30.24,37.7687931 27.2266587,40.8914239 21.2284511,40.9972165 L20.91,41 L9.91,41 C3.81689655,41 0.688843639,37.9576843 0.582791012,31.7306785 L0.58,31.4 L0.58,9.58 C0.58,3.2412069 3.60299941,0.15720868 9.59204846,0.0527482164 L9.91,0.05 L20.91,0.05 Z M58.7,0.05 C64.7931034,0.05 67.9114982,3.02470868 68.0172178,9.24938317 L68.02,9.58 L68.02,31.43 C68.02,37.7687931 65.0066587,40.8914239 59.0179427,40.9972165 L58.7,41 L47.7,41 C41.6068966,41 38.4885018,37.9576843 38.3827822,31.7306785 L38.38,31.4 L38.38,9.58 C38.38,3.2412069 41.3933413,0.15720868 47.3820573,0.0527482164 L47.7,0.05 L58.7,0.05 Z" id="Shape"></path>
                </g>
                <g id="Light-M" transform="translate(605.100000, 424.000000)">
                    <path d="M83.1172,40.6445 L95.275,40.6445 C100.793,40.6445 103.625,37.959 103.625,32.1973 L103.625,9.1016 C103.625,3.291 100.793,0.6055 95.275,0.6055 L83.1172,0.6055 C77.6484,0.6055 74.8164,3.291 74.8164,9.1016 L74.8164,32.1973 C74.8164,37.959 77.6484,40.6445 83.1172,40.6445 Z M8.752,40.6445 L20.9102,40.6445 C26.4277,40.6445 29.2598,37.959 29.2598,32.1973 L29.2598,9.1016 C29.2598,3.291 26.4277,0.6055 20.9102,0.6055 L8.752,0.6055 C3.2832,0.6055 0.4512,3.291 0.4512,9.1016 L0.4512,32.1973 C0.4512,37.959 3.2832,40.6445 8.752,40.6445 Z M45.959,40.6445 L58.1172,40.6445 C63.5859,40.6445 66.418,37.959 66.418,32.1973 L66.418,9.1016 C66.418,3.291 63.5859,0.6055 58.1172,0.6055 L45.959,0.6055 C40.4414,0.6055 37.6582,3.291 37.6582,9.1016 L37.6582,32.1973 C37.6582,37.959 40.4414,40.6445 45.959,40.6445 Z M8.752,89.0332 L20.9102,89.0332 C26.4277,89.0332 29.2598,86.34766 29.2598,80.585938 L29.2598,57.4902 C29.2598,51.7285 26.4277,49.043 20.9102,49.043 L8.752,49.043 C3.2832,49.043 0.4512,51.7285 0.4512,57.4902 L0.4512,80.585938 C0.4512,86.34766 3.2832,89.0332 8.752,89.0332 Z M95.275,49.043 C100.793,49.043 103.625,51.7285 103.625,57.4902 L103.625,57.4902 L103.625,80.585938 C103.625,86.34766 100.793,89.0332 95.275,89.0332 L95.275,89.0332 L83.1172,89.0332 C77.6484,89.0332 74.8164,86.34766 74.8164,80.585938 L74.8164,80.585938 L74.8164,57.4902 C74.8164,51.7285 77.6484,49.043 83.1172,49.043 L83.1172,49.043 Z M58.0172,49.043 C63.4859,49.043 66.318,51.7285 66.318,57.4902 L66.318,57.4902 L66.318,80.585938 C66.318,86.34766 63.4859,89.0332 58.0172,89.0332 L58.0172,89.0332 L45.859,89.0332 C40.3414,89.0332 37.5582,86.34766 37.5582,80.585938 L37.5582,80.585938 L37.5582,57.4902 C37.5582,51.7285 40.3414,49.043 45.859,49.043 L45.859,49.043 Z M57.9195,54.4141 L46.0055,54.4141 C43.857,54.4141 42.9293,55.3906 42.9293,57.5391 L42.9293,57.5391 L42.9293,80.537109 C42.9293,82.68555 43.857,83.66211 46.0055,83.66211 L46.0055,83.66211 L57.9195,83.66211 C60.0191,83.66211 60.9469,82.68555 60.9469,80.537109 L60.9469,80.537109 L60.9469,57.5391 C60.9469,55.3906 60.0191,54.4141 57.9195,54.4141 L57.9195,54.4141 Z" id="Shape"></path>
                </g>
                <g id="Thin-M" transform="translate(309.776000, 425.000000)">
                    <path d="M80.2363,39.4492 L93.859,39.4492 C98.4,39.4492 100.842,37.3496 100.842,32.418 L100.842,7.6621 C100.842,2.7793 98.4,0.6309 93.859,0.6309 L80.2363,0.6309 C75.6465,0.6309 73.2539,2.7793 73.2539,7.6621 L73.2539,32.418 C73.2539,37.3496 75.6465,39.4492 80.2363,39.4492 Z M7.4336,39.4492 L21.0566,39.4492 C25.6465,39.4492 28.0391,37.3496 28.0391,32.418 L28.0391,7.6621 C28.0391,2.7793 25.6465,0.6309 21.0566,0.6309 L7.4336,0.6309 C2.8926,0.6309 0.4512,2.7793 0.4512,7.6621 L0.4512,32.418 C0.4512,37.3496 2.8926,39.4492 7.4336,39.4492 Z M43.8105,39.4492 L57.4824,39.4492 C62.0234,39.4492 64.4648,37.3496 64.4648,32.418 L64.4648,7.6621 C64.4648,2.7793 62.0234,0.6309 57.4824,0.6309 L43.8105,0.6309 C39.2695,0.6309 36.8281,2.7793 36.8281,7.6621 L36.8281,32.418 C36.8281,37.3496 39.2695,39.4492 43.8105,39.4492 Z M7.4336,87.05664 L21.0566,87.05664 C25.6465,87.05664 28.0391,84.95703 28.0391,80.02539 L28.0391,55.2695 C28.0391,50.3867 25.6465,48.2383 21.0566,48.2383 L7.4336,48.2383 C2.8926,48.2383 0.4512,50.3867 0.4512,55.2695 L0.4512,80.02539 C0.4512,84.95703 2.8926,87.05664 7.4336,87.05664 Z M93.859,48.2383 C98.4,48.2383 100.842,50.3867 100.842,55.2695 L100.842,55.2695 L100.842,80.02539 C100.842,84.95703 98.4,87.05664 93.859,87.05664 L93.859,87.05664 L80.2363,87.05664 C75.6465,87.05664 73.2539,84.95703 73.2539,80.02539 L73.2539,80.02539 L73.2539,55.2695 C73.2539,50.3867 75.6465,48.2383 80.2363,48.2383 L80.2363,48.2383 Z M57.4852,48.2383 C62.0262,48.2383 64.4676,50.3867 64.4676,55.2695 L64.4676,55.2695 L64.4676,80.02539 C64.4676,84.95703 62.0262,87.05664 57.4852,87.05664 L57.4852,87.05664 L43.8133,87.05664 C39.2723,87.05664 36.8309,84.95703 36.8309,80.02539 L36.8309,80.02539 L36.8309,55.2695 C36.8309,50.3867 39.2723,48.2383 43.8133,48.2383 L43.8133,48.2383 Z M57.3387,51.6562 L43.9598,51.6562 C41.3231,51.6562 40.2489,52.7305 40.2489,55.3672 L40.2489,55.3672 L40.2489,79.927734 C40.2489,82.56445 41.3231,83.63867 43.9598,83.63867 L43.9598,83.63867 L57.3387,83.63867 C59.9755,83.63867 61.0497,82.56445 61.0497,79.927734 L61.0497,79.927734 L61.0497,55.3672 C61.0497,52.7305 59.9755,51.6562 57.3387,51.6562 L57.3387,51.6562 Z" id="Shape"></path>
                </g>
                <g id="Ultralight-M" transform="translate(13.773000, 426.000000)">
                    <path d="M78.7227,38.3516 L93.127,38.3516 C97.229,38.3516 99.426,36.5449 99.426,32.0527 L99.426,6.4668 C99.426,1.9746 97.229,0.168 93.127,0.168 L78.7227,0.168 C74.6699,0.168 72.4238,1.9746 72.4238,6.4668 L72.4238,32.0527 C72.4238,36.5449 74.6699,38.3516 78.7227,38.3516 Z M6.75,38.3516 L21.1543,38.3516 C25.207,38.3516 27.4531,36.5449 27.4531,32.0527 L27.4531,6.4668 C27.4531,1.9746 25.207,0.168 21.1543,0.168 L6.75,0.168 C2.6973,0.168 0.4512,1.9746 0.4512,6.4668 L0.4512,32.0527 C0.4512,36.5449 2.6973,38.3516 6.75,38.3516 Z M42.7363,38.3516 L57.1406,38.3516 C61.1934,38.3516 63.4395,36.5449 63.4395,32.0527 L63.4395,6.4668 C63.4395,1.9746 61.1934,0.168 57.1406,0.168 L42.7363,0.168 C38.6836,0.168 36.4375,1.9746 36.4375,6.4668 L36.4375,32.0527 C36.4375,36.5449 38.6836,38.3516 42.7363,38.3516 Z M6.75,85.56836 L21.1543,85.56836 C25.207,85.56836 27.4531,83.71289 27.4531,79.26953 L27.4531,53.6348 C27.4531,49.1914 25.207,47.3848 21.1543,47.3848 L6.75,47.3848 C2.6973,47.3848 0.4512,49.1914 0.4512,53.6348 L0.4512,79.26953 C0.4512,83.71289 2.6973,85.56836 6.75,85.56836 Z M93.127,47.3848 C97.229,47.3848 99.426,49.1914 99.426,53.6348 L99.426,53.6348 L99.426,79.26953 C99.426,83.71289 97.229,85.56836 93.127,85.56836 L93.127,85.56836 L78.7227,85.56836 C74.6699,85.56836 72.4238,83.71289 72.4238,79.26953 L72.4238,79.26953 L72.4238,53.6348 C72.4238,49.1914 74.6699,47.3848 78.7227,47.3848 L78.7227,47.3848 Z M57.1364,47.3848 C61.1892,47.3848 63.4353,49.1914 63.4353,53.6348 L63.4353,53.6348 L63.4353,79.26953 C63.4353,83.71289 61.1892,85.56836 57.1364,85.56836 L57.1364,85.56836 L42.7321,85.56836 C38.6794,85.56836 36.4333,83.71289 36.4333,79.26953 L36.4333,79.26953 L36.4333,53.6348 C36.4333,49.1914 38.6794,47.3848 42.7321,47.3848 L42.7321,47.3848 Z M56.9899,49.7773 L42.8786,49.7773 C39.9978,49.7773 38.8259,50.9004 38.8259,53.7812 L38.8259,53.7812 L38.8259,79.17188 C38.8259,82.05273 39.9978,83.17578 42.8786,83.17578 L42.8786,83.17578 L56.9899,83.17578 C59.9196,83.17578 61.0427,82.05273 61.0427,79.17188 L61.0427,79.17188 L61.0427,53.7812 C61.0427,50.9004 59.9196,49.7773 56.9899,49.7773 L56.9899,49.7773 Z" id="Shape"></path>
                </g>
                <g id="Black-S" transform="translate(2387.900000, 0.000000)">
                    <path d="M81.332,36.6953 L85.4336,36.6953 C94.223,36.6953 98.227,32.6914 98.227,23.9023 L98.227,13.4531 C98.227,4.6641 94.223,0.6602 85.4336,0.6602 L81.332,0.6602 C72.543,0.6602 68.5391,4.6641 68.5391,13.4531 L68.5391,23.9023 C68.5391,32.6914 72.543,36.6953 81.332,36.6953 Z M13.5586,36.6953 L17.6602,36.6953 C26.4492,36.6953 30.4531,32.6914 30.4531,23.9023 L30.4531,13.4531 C30.4531,4.6641 26.4492,0.6602 17.6602,0.6602 L13.5586,0.6602 C4.7695,0.6602 0.76562,4.6641 0.76562,13.4531 L0.76562,23.9023 C0.76562,32.6914 4.7695,36.6953 13.5586,36.6953 Z M47.4453,36.6953 L51.5469,36.6953 C60.3359,36.6953 64.3398,32.6914 64.3398,23.9023 L64.3398,13.4531 C64.3398,4.6641 60.3359,0.6602 51.5469,0.6602 L47.4453,0.6602 C38.6562,0.6602 34.6523,4.6641 34.6523,13.4531 L34.6523,23.9023 C34.6523,32.6914 38.6562,36.6953 47.4453,36.6953 Z M13.5586,76.92969 L17.6602,76.92969 C26.4492,76.92969 30.4531,72.92578 30.4531,64.13672 L30.4531,53.6875 C30.4531,44.8984 26.4492,40.8945 17.6602,40.8945 L13.5586,40.8945 C4.7695,40.8945 0.76562,44.8984 0.76562,53.6875 L0.76562,64.13672 C0.76562,72.92578 4.7695,76.92969 13.5586,76.92969 Z M85.4336,40.8945 C94.223,40.8945 98.227,44.8984 98.227,53.6875 L98.227,53.6875 L98.227,64.13672 C98.227,72.92578 94.223,76.92969 85.4336,76.92969 L85.4336,76.92969 L81.332,76.92969 C72.543,76.92969 68.5391,72.92578 68.5391,64.13672 L68.5391,64.13672 L68.5391,53.6875 C68.5391,44.8984 72.543,40.8945 81.332,40.8945 L81.332,40.8945 Z M51.55128,40.8945 C60.34028,40.8945 64.34418,44.8984 64.34418,53.6875 L64.34418,53.6875 L64.34418,64.13672 C64.34418,72.92578 60.34028,76.92969 51.55128,76.92969 L51.55128,76.92969 L47.44968,76.92969 C38.66058,76.92969 34.65668,72.92578 34.65668,64.13672 L34.65668,64.13672 L34.65668,53.6875 C34.65668,44.8984 38.66058,40.8945 47.44968,40.8945 L47.44968,40.8945 Z M51.64888,51.6367 L47.35208,51.6367 C45.98488,51.6367 45.39888,52.2227 45.39888,53.5898 L45.39888,53.5898 L45.39888,64.23438 C45.39888,65.60156 45.98488,66.1875 47.35208,66.1875 L47.35208,66.1875 L51.64888,66.1875 C53.01608,66.1875 53.60208,65.60156 53.60208,64.23438 L53.60208,64.23438 L53.60208,53.5898 C53.60208,52.2227 53.01608,51.6367 51.64888,51.6367 L51.64888,51.6367 Z" id="Shape"></path>
                </g>
                <g id="Heavy-S" transform="translate(2092.850000, 1.000000)">
                    <path d="M78.2559,35.4512 L83.2852,35.4512 C91.244,35.4512 94.906,31.7891 94.906,23.7812 L94.906,11.916 C94.906,3.957 91.244,0.2461 83.2852,0.2461 L78.2559,0.2461 C70.3457,0.2461 66.6348,3.957 66.6348,11.916 L66.6348,23.7812 C66.6348,31.7891 70.3457,35.4512 78.2559,35.4512 Z M12.3867,35.4512 L17.416,35.4512 C25.375,35.4512 29.0371,31.7891 29.0371,23.7812 L29.0371,11.916 C29.0371,3.957 25.375,0.2461 17.416,0.2461 L12.3867,0.2461 C4.4277,0.2461 0.76562,3.957 0.76562,11.916 L0.76562,23.7812 C0.76562,31.7891 4.4277,35.4512 12.3867,35.4512 Z M45.3457,35.4512 L50.375,35.4512 C58.334,35.4512 61.9961,31.7891 61.9961,23.7812 L61.9961,11.916 C61.9961,3.957 58.334,0.2461 50.375,0.2461 L45.3457,0.2461 C37.3867,0.2461 33.7246,3.957 33.7246,11.916 L33.7246,23.7812 C33.7246,31.7891 37.3867,35.4512 45.3457,35.4512 Z M12.3867,75.34375 L17.416,75.34375 C25.375,75.34375 29.0371,71.63281 29.0371,63.67383 L29.0371,51.8086 C29.0371,43.8008 25.375,40.1387 17.416,40.1387 L12.3867,40.1387 C4.4277,40.1387 0.76562,43.8008 0.76562,51.8086 L0.76562,63.67383 C0.76562,71.63281 4.4277,75.34375 12.3867,75.34375 Z M83.2852,40.1387 C91.244,40.1387 94.906,43.8008 94.906,51.8086 L94.906,51.8086 L94.906,63.67383 C94.906,71.63281 91.244,75.34375 83.2852,75.34375 L83.2852,75.34375 L78.2559,75.34375 C70.3457,75.34375 66.6348,71.63281 66.6348,63.67383 L66.6348,63.67383 L66.6348,51.8086 C66.6348,43.8008 70.3457,40.1387 78.2559,40.1387 L78.2559,40.1387 Z M50.37938,40.1387 C58.33838,40.1387 62.00048,43.8008 62.00048,51.8086 L62.00048,51.8086 L62.00048,63.67383 C62.00048,71.63281 58.33838,75.34375 50.37938,75.34375 L50.37938,75.34375 L45.35008,75.34375 C37.39108,75.34375 33.72898,71.63281 33.72898,63.67383 L33.72898,63.67383 L33.72898,51.8086 C33.72898,43.8008 37.39108,40.1387 45.35008,40.1387 L45.35008,40.1387 Z M50.42818,49.7578 L45.25238,49.7578 C43.93408,49.7578 43.34818,50.3926 43.34818,51.7109 L43.34818,51.7109 L43.34818,63.77148 C43.34818,65.08984 43.93408,65.67578 45.25238,65.67578 L45.25238,65.67578 L50.42818,65.67578 C51.74658,65.67578 52.33248,65.08984 52.33248,63.77148 L52.33248,63.77148 L52.33248,51.7109 C52.33248,50.3926 51.74658,49.7578 50.42818,49.7578 L50.42818,49.7578 Z" id="Shape"></path>
                </g>
                <g id="Bold-S" transform="translate(1797.970000, 1.000000)">
                    <path d="M74.8379,35.207 L80.9414,35.207 C87.9238,35.207 91.244,31.8867 91.244,24.8066 L91.244,11.3301 C91.244,4.25 87.9238,0.9297 80.9414,0.9297 L74.8379,0.9297 C67.8555,0.9297 64.5352,4.25 64.5352,11.3301 L64.5352,24.8066 C64.5352,31.8867 67.8555,35.207 74.8379,35.207 Z M11.0684,35.207 L17.1719,35.207 C24.1543,35.207 27.4746,31.8867 27.4746,24.8066 L27.4746,11.3301 C27.4746,4.25 24.1543,0.9297 17.1719,0.9297 L11.0684,0.9297 C4.0859,0.9297 0.76562,4.25 0.76562,11.3301 L0.76562,24.8066 C0.76562,31.8867 4.0859,35.207 11.0684,35.207 Z M42.9531,35.207 L49.0566,35.207 C56.0391,35.207 59.3594,31.8867 59.3594,24.8066 L59.3594,11.3301 C59.3594,4.25 56.0391,0.9297 49.0566,0.9297 L42.9531,0.9297 C35.9707,0.9297 32.6504,4.25 32.6504,11.3301 L32.6504,24.8066 C32.6504,31.8867 35.9707,35.207 42.9531,35.207 Z M11.0684,74.66016 L17.1719,74.66016 C24.1543,74.66016 27.4746,71.33984 27.4746,64.25977 L27.4746,50.7832 C27.4746,43.7031 24.1543,40.3828 17.1719,40.3828 L11.0684,40.3828 C4.0859,40.3828 0.76562,43.7031 0.76562,50.7832 L0.76562,64.25977 C0.76562,71.33984 4.0859,74.66016 11.0684,74.66016 Z M80.9414,40.3828 C87.9238,40.3828 91.244,43.7031 91.244,50.7832 L91.244,50.7832 L91.244,64.25977 C91.244,71.33984 87.9238,74.66016 80.9414,74.66016 L80.9414,74.66016 L74.8379,74.66016 C67.8555,74.66016 64.5352,71.33984 64.5352,64.25977 L64.5352,64.25977 L64.5352,50.7832 C64.5352,43.7031 67.8555,40.3828 74.8379,40.3828 L74.8379,40.3828 Z M49.06098,40.3828 C56.04348,40.3828 59.36378,43.7031 59.36378,50.7832 L59.36378,50.7832 L59.36378,64.25977 C59.36378,71.33984 56.04348,74.66016 49.06098,74.66016 L49.06098,74.66016 L42.95748,74.66016 C35.97508,74.66016 32.65478,71.33984 32.65478,64.25977 L32.65478,64.25977 L32.65478,50.7832 C32.65478,43.7031 35.97508,40.3828 42.95748,40.3828 L42.95748,40.3828 Z M49.06098,48.8301 L42.95748,48.8301 C41.68798,48.8301 41.10208,49.4648 41.10208,50.7344 L41.10208,50.7344 L41.10208,64.30859 C41.10208,65.62695 41.68798,66.21289 42.95748,66.21289 L42.95748,66.21289 L49.06098,66.21289 C50.33058,66.21289 50.91648,65.62695 50.91648,64.30859 L50.91648,64.30859 L50.91648,50.7344 C50.91648,49.4648 50.33058,48.8301 49.06098,48.8301 L49.06098,48.8301 Z" id="Shape"></path>
                </g>
                <g id="Semibold-S" transform="translate(1502.530000, 2.000000)">
                    <path d="M72.4941,34.0117 L79.2812,34.0117 C85.6289,34.0117 88.7051,30.9355 88.7051,24.4902 L88.7051,9.9395 C88.7051,3.4453 85.6289,0.418 79.2812,0.418 L72.4941,0.418 C66.1465,0.418 63.0703,3.4453 63.0703,9.9395 L63.0703,24.4902 C63.0703,30.9355 66.1465,34.0117 72.4941,34.0117 Z M10.1406,34.0117 L16.9766,34.0117 C23.3242,34.0117 26.3516,30.9355 26.3516,24.4902 L26.3516,9.9395 C26.3516,3.4453 23.3242,0.418 16.9766,0.418 L10.1406,0.418 C3.793,0.418 0.76562,3.4453 0.76562,9.9395 L0.76562,24.4902 C0.76562,30.9355 3.793,34.0117 10.1406,34.0117 Z M41.293,34.0117 L48.1289,34.0117 C54.4766,34.0117 57.5039,30.9355 57.5039,24.4902 L57.5039,9.9395 C57.5039,3.4453 54.4766,0.418 48.1289,0.418 L41.293,0.418 C34.9453,0.418 31.918,3.4453 31.918,9.9395 L31.918,24.4902 C31.918,30.9355 34.9453,34.0117 41.293,34.0117 Z M10.1406,73.17188 L16.9766,73.17188 C23.3242,73.17188 26.3516,70.14453 26.3516,63.65039 L26.3516,49.0996 C26.3516,42.6543 23.3242,39.5781 16.9766,39.5781 L10.1406,39.5781 C3.793,39.5781 0.76562,42.6543 0.76562,49.0996 L0.76562,63.65039 C0.76562,70.14453 3.793,73.17188 10.1406,73.17188 Z M79.2812,39.5781 C85.6289,39.5781 88.7051,42.6543 88.7051,49.0996 L88.7051,49.0996 L88.7051,63.65039 C88.7051,70.14453 85.6289,73.17188 79.2812,73.17188 L79.2812,73.17188 L72.4941,73.17188 C66.1465,73.17188 63.0703,70.14453 63.0703,63.65039 L63.0703,63.65039 L63.0703,49.0996 C63.0703,42.6543 66.1465,39.5781 72.4941,39.5781 L72.4941,39.5781 Z M48.13328,39.5781 C54.48098,39.5781 57.50828,42.6543 57.50828,49.0996 L57.50828,49.0996 L57.50828,63.65039 C57.50828,70.14453 54.48098,73.17188 48.13328,73.17188 L48.13328,73.17188 L41.29738,73.17188 C34.94968,73.17188 31.92238,70.14453 31.92238,63.65039 L31.92238,63.65039 L31.92238,49.0996 C31.92238,42.6543 34.94968,39.5781 41.29738,39.5781 L41.29738,39.5781 Z M48.13328,47.1465 L41.34618,47.1465 C40.12548,47.1465 39.53958,47.7812 39.53958,49.0508 L39.53958,49.0508 L39.53958,63.74805 C39.53958,64.96875 40.12548,65.60352 41.34618,65.60352 L41.34618,65.60352 L48.13328,65.60352 C49.35398,65.60352 49.93988,64.96875 49.93988,63.74805 L49.93988,63.74805 L49.93988,49.0508 C49.93988,47.7812 49.35398,47.1465 48.13328,47.1465 L48.13328,47.1465 Z" id="Shape"></path>
                </g>
                <g id="Medium-S" transform="translate(1206.800000, 2.000000)">
                    <path d="M70.6875,33.8652 L78.0605,33.8652 C83.9199,33.8652 86.752,30.9844 86.752,25.0273 L86.752,9.5977 C86.752,3.6406 83.9199,0.7598 78.0605,0.7598 L70.6875,0.7598 C64.8281,0.7598 61.9961,3.6406 61.9961,9.5977 L61.9961,25.0273 C61.9961,30.9844 64.8281,33.8652 70.6875,33.8652 Z M9.457,33.8652 L16.8301,33.8652 C22.6895,33.8652 25.5215,30.9844 25.5215,25.0273 L25.5215,9.5977 C25.5215,3.6406 22.6895,0.7598 16.8301,0.7598 L9.457,0.7598 C3.5977,0.7598 0.76562,3.6406 0.76562,9.5977 L0.76562,25.0273 C0.76562,30.9844 3.5977,33.8652 9.457,33.8652 Z M40.0723,33.8652 L47.4453,33.8652 C53.3047,33.8652 56.1367,30.9844 56.1367,25.0273 L56.1367,9.5977 C56.1367,3.6406 53.3047,0.7598 47.4453,0.7598 L40.0723,0.7598 C34.2129,0.7598 31.3809,3.6406 31.3809,9.5977 L31.3809,25.0273 C31.3809,30.9844 34.2129,33.8652 40.0723,33.8652 Z M9.457,72.830078 L16.8301,72.830078 C22.6895,72.830078 25.5215,69.94922 25.5215,63.99219 L25.5215,48.5625 C25.5215,42.6055 22.6895,39.7246 16.8301,39.7246 L9.457,39.7246 C3.5977,39.7246 0.76562,42.6055 0.76562,48.5625 L0.76562,63.99219 C0.76562,69.94922 3.5977,72.830078 9.457,72.830078 Z M78.0605,39.7246 C83.9199,39.7246 86.752,42.6055 86.752,48.5625 L86.752,48.5625 L86.752,63.99219 C86.752,69.94922 83.9199,72.830078 78.0605,72.830078 L78.0605,72.830078 L70.6875,72.830078 C64.8281,72.830078 61.9961,69.94922 61.9961,63.99219 L61.9961,63.99219 L61.9961,48.5625 C61.9961,42.6055 64.8281,39.7246 70.6875,39.7246 L70.6875,39.7246 Z M47.44968,39.7246 C53.30908,39.7246 56.14108,42.6055 56.14108,48.5625 L56.14108,48.5625 L56.14108,63.99219 C56.14108,69.94922 53.30908,72.830078 47.44968,72.830078 L47.44968,72.830078 L40.07668,72.830078 C34.21728,72.830078 31.38528,69.94922 31.38528,63.99219 L31.38528,63.99219 L31.38528,48.5625 C31.38528,42.6055 34.21728,39.7246 40.07668,39.7246 L40.07668,39.7246 Z M47.40088,46.6582 L40.12548,46.6582 C38.90478,46.6582 38.31888,47.293 38.31888,48.5625 L38.31888,48.5625 L38.31888,64.04102 C38.31888,65.26172 38.90478,65.89648 40.12548,65.89648 L40.12548,65.89648 L47.40088,65.89648 C48.62158,65.89648 49.20748,65.26172 49.20748,64.04102 L49.20748,64.04102 L49.20748,48.5625 C49.20748,47.293 48.62158,46.6582 47.40088,46.6582 L47.40088,46.6582 Z" id="Shape"></path>
                </g>
                <g id="Regular-S" transform="translate(911.360000, 3.000000)">
                    <path d="M68.3438,32.7188 L76.4492,32.7188 C81.625,32.7188 84.2129,30.082 84.2129,24.7109 L84.2129,8.207 C84.2129,2.8359 81.625,0.1992 76.4492,0.1992 L68.3438,0.1992 C63.1191,0.1992 60.5312,2.8359 60.5312,8.207 L60.5312,24.7109 C60.5312,30.082 63.1191,32.7188 68.3438,32.7188 Z M8.5781,32.7188 L16.6348,32.7188 C21.8594,32.7188 24.4473,30.082 24.4473,24.7109 L24.4473,8.207 C24.4473,2.8359 21.8594,0.1992 16.6348,0.1992 L8.5781,0.1992 C3.3535,0.1992 0.76562,2.8359 0.76562,8.207 L0.76562,24.7109 C0.76562,30.082 3.3535,32.7188 8.5781,32.7188 Z M38.4609,32.7188 L46.5176,32.7188 C51.7422,32.7188 54.3301,30.082 54.3301,24.7109 L54.3301,8.207 C54.3301,2.8359 51.7422,0.1992 46.5176,0.1992 L38.4609,0.1992 C33.2363,0.1992 30.6484,2.8359 30.6484,8.207 L30.6484,24.7109 C30.6484,30.082 33.2363,32.7188 38.4609,32.7188 Z M8.5781,71.390625 L16.6348,71.390625 C21.8594,71.390625 24.4473,68.75391 24.4473,63.38281 L24.4473,46.8789 C24.4473,41.5078 21.8594,38.9199 16.6348,38.9199 L8.5781,38.9199 C3.3535,38.9199 0.76562,41.5078 0.76562,46.8789 L0.76562,63.38281 C0.76562,68.75391 3.3535,71.390625 8.5781,71.390625 Z M76.4492,38.9199 C81.625,38.9199 84.2129,41.5078 84.2129,46.8789 L84.2129,46.8789 L84.2129,63.38281 C84.2129,68.75391 81.625,71.390625 76.4492,71.390625 L76.4492,71.390625 L68.3438,71.390625 C63.1191,71.390625 60.5312,68.75391 60.5312,63.38281 L60.5312,63.38281 L60.5312,46.8789 C60.5312,41.5078 63.1191,38.9199 68.3438,38.9199 L68.3438,38.9199 Z M46.52198,38.9199 C51.74658,38.9199 54.33448,41.5078 54.33448,46.8789 L54.33448,46.8789 L54.33448,63.38281 C54.33448,68.75391 51.74658,71.390625 46.52198,71.390625 L46.52198,71.390625 L38.46528,71.390625 C33.24068,71.390625 30.65278,68.75391 30.65278,63.38281 L30.65278,63.38281 L30.65278,46.8789 C30.65278,41.5078 33.24068,38.9199 38.46528,38.9199 L38.46528,38.9199 Z M46.47318,45.0234 L38.56298,45.0234 C37.39108,45.0234 36.75638,45.6582 36.75638,46.8789 L36.75638,46.8789 L36.75638,63.43164 C36.75638,64.60352 37.39108,65.23828 38.56298,65.23828 L38.56298,65.23828 L46.47318,65.23828 C47.64498,65.23828 48.23098,64.60352 48.23098,63.43164 L48.23098,63.43164 L48.23098,46.8789 C48.23098,45.6582 47.64498,45.0234 46.47318,45.0234 L46.47318,45.0234 Z" id="Shape"></path>
                </g>
                <g id="Light-S" transform="translate(615.550000, 3.000000)">
                    <path d="M66.3906,32.5723 L75.4727,32.5723 C80.0625,32.5723 82.4062,30.3262 82.4062,25.541 L82.4062,7.9141 C82.4062,3.1289 80.0625,0.8828 75.4727,0.8828 L66.3906,0.8828 C61.8008,0.8828 59.5059,3.1289 59.5059,7.9141 L59.5059,25.541 C59.5059,30.3262 61.8008,32.5723 66.3906,32.5723 Z M7.6504,32.5723 L16.7324,32.5723 C21.3223,32.5723 23.666,30.3262 23.666,25.541 L23.666,7.9141 C23.666,3.1289 21.3223,0.8828 16.7324,0.8828 L7.6504,0.8828 C3.1094,0.8828 0.76562,3.1289 0.76562,7.9141 L0.76562,25.541 C0.76562,30.3262 3.1094,32.5723 7.6504,32.5723 Z M37.0449,32.5723 L46.127,32.5723 C50.7168,32.5723 53.0117,30.3262 53.0117,25.541 L53.0117,7.9141 C53.0117,3.1289 50.7168,0.8828 46.127,0.8828 L37.0449,0.8828 C32.4551,0.8828 30.1113,3.1289 30.1113,7.9141 L30.1113,25.541 C30.1113,30.3262 32.4551,32.5723 37.0449,32.5723 Z M7.6504,70.707031 L16.7324,70.707031 C21.3223,70.707031 23.666,68.46094 23.666,63.67578 L23.666,46.0977 C23.666,41.3125 21.3223,39.0664 16.7324,39.0664 L7.6504,39.0664 C3.1094,39.0664 0.76562,41.3125 0.76562,46.0977 L0.76562,63.67578 C0.76562,68.46094 3.1094,70.707031 7.6504,70.707031 Z M75.4727,39.0664 C80.0625,39.0664 82.4062,41.3125 82.4062,46.0977 L82.4062,46.0977 L82.4062,63.67578 C82.4062,68.46094 80.0625,70.707031 75.4727,70.707031 L75.4727,70.707031 L66.3906,70.707031 C61.8008,70.707031 59.5059,68.46094 59.5059,63.67578 L59.5059,63.67578 L59.5059,46.0977 C59.5059,41.3125 61.8008,39.0664 66.3906,39.0664 L66.3906,39.0664 Z M46.13138,39.0664 C50.72118,39.0664 53.01608,41.3125 53.01608,46.0977 L53.01608,46.0977 L53.01608,63.67578 C53.01608,68.46094 50.72118,70.707031 46.13138,70.707031 L46.13138,70.707031 L37.04928,70.707031 C32.45948,70.707031 30.11568,68.46094 30.11568,63.67578 L30.11568,63.67578 L30.11568,46.0977 C30.11568,41.3125 32.45948,39.0664 37.04928,39.0664 L37.04928,39.0664 Z M46.03368,43.8516 L37.14698,43.8516 C35.63328,43.8516 34.94968,44.584 34.94968,46.0977 L34.94968,46.0977 L34.94968,63.67578 C34.94968,65.18945 35.63328,65.92188 37.14698,65.92188 L37.14698,65.92188 L46.03368,65.92188 C47.54738,65.92188 48.23098,65.18945 48.23098,63.67578 L48.23098,63.67578 L48.23098,46.0977 C48.23098,44.584 47.54738,43.8516 46.03368,43.8516 L46.03368,43.8516 Z" id="Shape"></path>
                </g>
                <g id="Thin-S" transform="translate(320.057000, 4.000000)">
                    <path d="M63.8027,31.4258 L74.2031,31.4258 C77.9629,31.4258 79.9648,29.668 79.9648,25.6641 L79.9648,6.5723 C79.9648,2.5684 77.9629,0.7617 74.2031,0.7617 L63.8027,0.7617 C60.0918,0.7617 58.0898,2.5684 58.0898,6.5723 L58.0898,25.6641 C58.0898,29.668 60.0918,31.4258 63.8027,31.4258 Z M6.4785,31.4258 L16.8789,31.4258 C20.6387,31.4258 22.6406,29.668 22.6406,25.6641 L22.6406,6.5723 C22.6406,2.5684 20.6387,0.7617 16.8789,0.7617 L6.4785,0.7617 C2.7676,0.7617 0.76562,2.5684 0.76562,6.5723 L0.76562,25.6641 C0.76562,29.668 2.7676,31.4258 6.4785,31.4258 Z M35.1406,31.4258 L45.541,31.4258 C49.3008,31.4258 51.3027,29.668 51.3027,25.6641 L51.3027,6.5723 C51.3027,2.5684 49.3008,0.7617 45.541,0.7617 L35.1406,0.7617 C31.4297,0.7617 29.4277,2.5684 29.4277,6.5723 L29.4277,25.6641 C29.4277,29.668 31.4297,31.4258 35.1406,31.4258 Z M6.4785,68.87695 L16.8789,68.87695 C20.6387,68.87695 22.6406,67.11914 22.6406,63.11523 L22.6406,44.0234 C22.6406,40.0195 20.6387,38.2129 16.8789,38.2129 L6.4785,38.2129 C2.7676,38.2129 0.76562,40.0195 0.76562,44.0234 L0.76562,63.11523 C0.76562,67.11914 2.7676,68.87695 6.4785,68.87695 Z M74.2031,38.2129 C77.9629,38.2129 79.9648,40.0195 79.9648,44.0234 L79.9648,44.0234 L79.9648,63.11523 C79.9648,67.11914 77.9629,68.87695 74.2031,68.87695 L74.2031,68.87695 L63.8027,68.87695 C60.0918,68.87695 58.0898,67.11914 58.0898,63.11523 L58.0898,63.11523 L58.0898,44.0234 C58.0898,40.0195 60.0918,38.2129 63.8027,38.2129 L63.8027,38.2129 Z M45.53838,38.2129 C49.29818,38.2129 51.30008,40.0195 51.30008,44.0234 L51.30008,44.0234 L51.30008,63.11523 C51.30008,67.11914 49.29818,68.87695 45.53838,68.87695 L45.53838,68.87695 L35.13798,68.87695 C31.42708,68.87695 29.42508,67.11914 29.42508,63.11523 L29.42508,63.11523 L29.42508,44.0234 C29.42508,40.0195 31.42708,38.2129 35.13798,38.2129 L35.13798,38.2129 Z M45.48958,41.2891 L35.23568,41.2891 C33.28258,41.2891 32.50128,42.1191 32.50128,44.0723 L32.50128,44.0723 L32.50128,63.01758 C32.50128,65.01953 33.28258,65.80078 35.23568,65.80078 L35.23568,65.80078 L45.48958,65.80078 C47.44268,65.80078 48.22398,65.01953 48.22398,63.01758 L48.22398,63.01758 L48.22398,44.0723 C48.22398,42.1191 47.44268,41.2891 45.48958,41.2891 L45.48958,41.2891 Z" id="Shape"></path>
                </g>
                <g id="Ultralight-S" transform="translate(23.981000, 5.000000)">
                    <path d="M62.4844,30.3281 L73.5684,30.3281 C76.8887,30.3281 78.6953,28.8145 78.6953,25.2012 L78.6953,5.377 C78.6953,1.7637 76.8887,0.25 73.5684,0.25 L62.4844,0.25 C59.1641,0.25 57.3574,1.7637 57.3574,5.377 L57.3574,25.2012 C57.3574,28.8145 59.1641,30.3281 62.4844,30.3281 Z M5.8926,30.3281 L16.9766,30.3281 C20.2969,30.3281 22.1035,28.8145 22.1035,25.2012 L22.1035,5.377 C22.1035,1.7637 20.2969,0.25 16.9766,0.25 L5.8926,0.25 C2.5723,0.25 0.76562,1.7637 0.76562,5.377 L0.76562,25.2012 C0.76562,28.8145 2.5723,30.3281 5.8926,30.3281 Z M34.2129,30.3281 L45.248,30.3281 C48.5684,30.3281 50.375,28.8145 50.375,25.2012 L50.375,5.377 C50.375,1.7637 48.5684,0.25 45.248,0.25 L34.2129,0.25 C30.8926,0.25 29.0859,1.7637 29.0859,5.377 L29.0859,25.2012 C29.0859,28.8145 30.8926,30.3281 34.2129,30.3281 Z M5.8926,67.4375 L16.9766,67.4375 C20.2969,67.4375 22.1035,65.92383 22.1035,62.31055 L22.1035,42.4863 C22.1035,38.873 20.2969,37.3594 16.9766,37.3594 L5.8926,37.3594 C2.5723,37.3594 0.76562,38.873 0.76562,42.4863 L0.76562,62.31055 C0.76562,65.92383 2.5723,67.4375 5.8926,67.4375 Z M73.5684,37.3594 C76.8887,37.3594 78.6953,38.873 78.6953,42.4863 L78.6953,42.4863 L78.6953,62.31055 C78.6953,65.92383 76.8887,67.4375 73.5684,67.4375 L73.5684,67.4375 L62.4844,67.4375 C59.1641,67.4375 57.3574,65.92383 57.3574,62.31055 L57.3574,62.31055 L57.3574,42.4863 C57.3574,38.873 59.1641,37.3594 62.4844,37.3594 L62.4844,37.3594 Z M45.25138,37.3594 C48.57178,37.3594 50.37838,38.873 50.37838,42.4863 L50.37838,42.4863 L50.37838,62.31055 C50.37838,65.92383 48.57178,67.4375 45.25138,67.4375 L45.25138,67.4375 L34.21628,67.4375 C30.89598,67.4375 29.08928,65.92383 29.08928,62.31055 L29.08928,62.31055 L29.08928,42.4863 C29.08928,38.873 30.89598,37.3594 34.21628,37.3594 L34.21628,37.3594 Z M45.15378,39.5078 L34.31388,39.5078 C32.11668,39.5078 31.23778,40.3867 31.23778,42.5352 L31.23778,42.5352 L31.23778,62.21289 C31.23778,64.41016 32.11668,65.28906 34.31388,65.28906 L34.31388,65.28906 L45.15378,65.28906 C47.35108,65.28906 48.22998,64.41016 48.22998,62.21289 L48.22998,62.21289 L48.22998,42.5352 C48.22998,40.3867 47.35108,39.5078 45.15378,39.5078 L45.15378,39.5078 Z" id="Shape"></path>
                </g>
            </g>
        </g>
    </g>
</svg>