<?xml version="1.0" encoding="UTF-8"?>
<svg width="3300px" height="2200px" viewBox="0 0 3300 2200" version="1.1" xmlns="http://www.w3.org/2000/svg" xmlns:xlink="http://www.w3.org/1999/xlink">
    <!-- Generator: Sketch 59.1 (86144) - https://sketch.com -->
    <title>swift.tv</title>
    <desc>Created with Sketch.</desc>
    <g id="Page-1" stroke="none" stroke-width="1" fill="none" fill-rule="evenodd">
        <g id="swift.tv">
            <g id="Notes">
                <rect id="artboard" fill="#FFFFFF" fill-rule="nonzero" x="0" y="0" width="3300" height="2200"></rect>
                <line x1="263" y1="292" x2="3036" y2="292" id="Path" stroke="#000000" stroke-width="0.5"></line>
                <text id="Weight/Scale-Variations" fill="#000000" font-family="Helvetica-Bold, Helvetica" font-size="13" font-weight="bold">
                    <tspan x="263" y="322">Weight/Scale Variations</tspan>
                </text>
                <text id="Ultralight" fill="#000000" font-family="Helvetica" font-size="13" font-weight="normal">
                    <tspan x="533.711" y="322">Ultralight</tspan>
                </text>
                <text id="Thin" fill="#000000" font-family="Helvetica" font-size="13" font-weight="normal">
                    <tspan x="843.422" y="322">Thin</tspan>
                </text>
                <text id="Light" fill="#000000" font-family="Helvetica" font-size="13" font-weight="normal">
                    <tspan x="1138.63" y="322">Light</tspan>
                </text>
                <text id="Regular" fill="#000000" font-family="Helvetica" font-size="13" font-weight="normal">
                    <tspan x="1426.84" y="322">Regular</tspan>
                </text>
                <text id="Medium" fill="#000000" font-family="Helvetica" font-size="13" font-weight="normal">
                    <tspan x="1723.06" y="322">Medium</tspan>
                </text>
                <text id="Semibold" fill="#000000" font-family="Helvetica" font-size="13" font-weight="normal">
                    <tspan x="2015.77" y="322">Semibold</tspan>
                </text>
                <text id="Bold" fill="#000000" font-family="Helvetica" font-size="13" font-weight="normal">
                    <tspan x="2326.48" y="322">Bold</tspan>
                </text>
                <text id="Heavy" fill="#000000" font-family="Helvetica" font-size="13" font-weight="normal">
                    <tspan x="2618.19" y="322">Heavy</tspan>
                </text>
                <text id="Black" fill="#000000" font-family="Helvetica" font-size="13" font-weight="normal">
                    <tspan x="2917.4" y="322">Black</tspan>
                </text>
                <line x1="263" y1="1903" x2="3036" y2="1903" id="Path" stroke="#000000" stroke-width="0.5"></line>
                <g id="Group" transform="translate(264.000000, 1918.000000)" fill="#000000" fill-rule="nonzero">
                    <path d="M8.24805,15.830078 C12.5547,15.830078 16.1387,12.25586 16.1387,7.94922 C16.1387,3.6426 12.5449,0.0684 8.23828,0.0684 C3.94141,0.0684 0.36719,3.6426 0.36719,7.94922 C0.36719,12.25586 3.95117,15.830078 8.24805,15.830078 Z M8.24805,14.345703 C4.70312,14.345703 1.87109,11.50391 1.87109,7.94922 C1.87109,4.3945 4.69336,1.5527 8.23828,1.5527 C11.793,1.5527 14.6348,4.3945 14.6445252,7.94922 C14.6543,11.50391 11.8027,14.345703 8.24805,14.345703 Z M8.22852,11.57227 C8.69727,11.57227 8.9707,11.25977 8.9707,10.74219 L8.9707,8.68164 L11.1973,8.68164 C11.6953,8.68164 12.0371,8.42773 12.0371,7.95898 C12.0371,7.48047 11.7148,7.2168 11.1973,7.2168 L8.9707,7.2168 L8.9707,4.9902 C8.9707,4.4727 8.69727,4.1504 8.22852,4.1504 C7.75977,4.1504 7.50586,4.4922 7.50586,4.9902 L7.50586,7.2168 L5.29883,7.2168 C4.78125,7.2168 4.44922,7.48047 4.44922,7.95898 C4.44922,8.42773 4.80078,8.68164 5.29883,8.68164 L7.50586,8.68164 L7.50586,10.74219 C7.50586,11.24023 7.75977,11.57227 8.22852,11.57227 Z" id="Shape"></path>
                </g>
                <g id="Group" transform="translate(282.506000, 1915.000000)" fill="#000000" fill-rule="nonzero">
                    <path d="M10.709,20.91016 C16.1582,20.91016 20.6699,16.39844 20.6699,10.94922 C20.6699,5.5098 16.1484,0.9883 10.6992,0.9883 C5.25977,0.9883 0.74805,5.5098 0.74805,10.94922 C0.74805,16.39844 5.26953,20.91016 10.709,20.91016 Z M10.709,19.25 C6.09961,19.25 2.41797,15.55859 2.41797,10.94922 C2.41797,6.3496 6.08984,2.6484 10.6992,2.6484 C15.3086,2.6484 19,6.3496 19.009819,10.94922 C19.0195,15.55859 15.3184,19.25 10.709,19.25 Z M10.6895,15.58789 C11.207,15.58789 11.5195,15.22656 11.5195,14.66016 L11.5195,11.76953 L14.5762,11.76953 C15.123,11.76953 15.5039,11.48633 15.5039,10.96875 C15.5039,10.44141 15.1426,10.13867 14.5762,10.13867 L11.5195,10.13867 L11.5195,7.0723 C11.5195,6.4961 11.207,6.1445 10.6895,6.1445 C10.1719,6.1445 9.8789,6.5156 9.8789,7.0723 L9.8789,10.13867 L6.83203,10.13867 C6.26562,10.13867 5.89453,10.44141 5.89453,10.96875 C5.89453,11.48633 6.28516,11.76953 6.83203,11.76953 L9.8789,11.76953 L9.8789,14.66016 C9.8789,15.20703 10.1719,15.58789 10.6895,15.58789 Z" id="Shape"></path>
                </g>
                <g id="Group" transform="translate(306.924000, 1913.000000)" fill="#000000" fill-rule="nonzero">
                    <path d="M12.9707,25.67383 C19.9336,25.67383 25.6953,19.921875 25.6953,12.95898 C25.6953,5.9961 19.9238,0.2441 12.9609,0.2441 C6.00781,0.2441 0.25586,5.9961 0.25586,12.95898 C0.25586,19.921875 6.01758,25.67383 12.9707,25.67383 Z M12.9707,23.85742 C6.93555,23.85742 2.08203,18.99414 2.08203,12.95898 C2.08203,6.9238 6.92578,2.0605 12.9609,2.0605 C19.0059,2.0605 23.8594,6.9238 23.8691148,12.95898 C23.8789,18.99414 19.0156,23.85742 12.9707,23.85742 Z M12.9512,18.93555 C13.5176,18.93555 13.8691,18.54492 13.8691,17.93945 L13.8691,13.86719 L18.1074,13.86719 C18.6934,13.86719 19.1133,13.53516 19.1133,12.97852 C19.1133,12.40234 18.7227,12.06055 18.1074,12.06055 L13.8691,12.06055 L13.8691,7.8125 C13.8691,7.1973 13.5176,6.8066 12.9512,6.8066 C12.3848,6.8066 12.0625,7.2168 12.0625,7.8125 L12.0625,12.06055 L7.83398,12.06055 C7.21875,12.06055 6.80859,12.40234 6.80859,12.97852 C6.80859,13.53516 7.23828,13.86719 7.83398,13.86719 L12.0625,13.86719 L12.0625,17.93945 C12.0625,18.52539 12.3848,18.93555 12.9512,18.93555 Z" id="Shape"></path>
                </g>
                <text id="Design-Variations" fill="#000000" font-family="Helvetica-Bold, Helvetica" font-size="13" font-weight="bold">
                    <tspan x="263" y="1953">Design Variations</tspan>
                </text>
                <text id="Symbols-are-supported-in-up-to-nine-weights-and-three-scales." fill="#000000" font-family="Helvetica" font-size="13" font-weight="normal">
                    <tspan x="263" y="1971">Symbols are supported in up to nine weights and three scales.</tspan>
                </text>
                <text id="For-optimal-layout-with-text-and-other-symbols,-vertically-align" fill="#000000" font-family="Helvetica" font-size="13" font-weight="normal">
                    <tspan x="263" y="1989">For optimal layout with text and other symbols, vertically align</tspan>
                </text>
                <text id="symbols-with-the-adjacent-text." fill="#000000" font-family="Helvetica" font-size="13" font-weight="normal">
                    <tspan x="263" y="2007">symbols with the adjacent text.</tspan>
                </text>
                <rect id="Rectangle" fill="#00AEEF" fill-rule="nonzero" opacity="0.4" x="776" y="1919" width="3" height="14"></rect>
                <g id="Group" transform="translate(779.000000, 1918.000000)" fill="#000000" fill-rule="nonzero">
                    <path d="M10.5273,15 L12.373,15 L7.17773,0.9082 L5.43945,0.9082 L0.244141,15 L2.08984,15 L3.50586,10.9668 L9.11133,10.9668 L10.5273,15 Z M6.2793,3.0469 L6.33789,3.0469 L8.59375,9.47266 L4.02344,9.47266 L6.2793,3.0469 Z" id="Shape"></path>
                </g>
                <rect id="Rectangle" fill="#00AEEF" fill-rule="nonzero" opacity="0.4" x="791.617" y="1919" width="3" height="14"></rect>
                <text id="Margins" fill="#000000" font-family="Helvetica-Bold, Helvetica" font-size="13" font-weight="bold">
                    <tspan x="776" y="1953">Margins</tspan>
                </text>
                <text id="Leading-and-trailing-margins-on-the-left-and-right-side-of-each-symbol" fill="#000000" font-family="Helvetica" font-size="13" font-weight="normal">
                    <tspan x="776" y="1971">Leading and trailing margins on the left and right side of each symbol</tspan>
                </text>
                <text id="can-be-adjusted-by-modifying-the-width-of-the-blue-rectangles." fill="#000000" font-family="Helvetica" font-size="13" font-weight="normal">
                    <tspan x="776" y="1989">can be adjusted by modifying the width of the blue rectangles.</tspan>
                </text>
                <text id="Modifications-are-automatically-applied-proportionally-to-all" fill="#000000" font-family="Helvetica" font-size="13" font-weight="normal">
                    <tspan x="776" y="2007">Modifications are automatically applied proportionally to all</tspan>
                </text>
                <text id="scales-and-weights." fill="#000000" font-family="Helvetica" font-size="13" font-weight="normal">
                    <tspan x="776" y="2025">scales and weights.</tspan>
                </text>
                <g id="Group" transform="translate(1291.000000, 1915.000000)" fill="#000000" fill-rule="nonzero">
                    <path d="M0.83203,21.11523 L2.375,22.6582 C3.22461,23.48828 4.19141,23.41992 5.06055,22.46289 L15.2754,11.33984 C15.7051,11.63281 16.0957,11.62305 16.5645,11.52539 L17.6094,11.31055 L18.3027,12.00391 L18.2539,12.52148 C18.1855,13.04883 18.3516,13.46875 18.8496,13.9668 L19.6602,14.77734 C20.168,15.28516 20.8223,15.31445 21.3008,14.83594 L24.5527,11.58398 C25.0312,11.10547 25.0117,10.45117 24.5039,9.94336 L23.6836,9.12305 C23.1855,8.625 22.7754,8.44922 22.2383,8.52734 L21.7109,8.58594 L21.0566,7.9219 L21.3398,6.7793 C21.4863,6.2129 21.3398,5.7441 20.7148,5.1387 L18.3027,2.7461 C14.7578,-0.7793 10.2266,-0.6719 7.11133,2.4629 C6.69141,2.8926 6.64258,3.4785 6.91602,3.9082 C7.15039,4.2793 7.62891,4.5039 8.2734,4.3379 C9.7871,3.957 11.3008,4.0742 12.7852,5.0801 L12.1602,6.6621 C11.9258,7.248 11.9453,7.7266 12.1797,8.16602 L1.01758,18.439453 C0.08008,19.30859 -0.02734,20.25586 0.83203,21.11523 Z M8.6738,2.8535 C11.3398,0.8613 14.6504,1.1738 17.0527,3.5859 L19.6797,6.1934 C19.9141,6.4277 19.9434,6.6133 19.8848,6.9062 L19.5039,8.46875 L21.0762,10.04102 L22.043,9.95312 C22.3262,9.92383 22.4141,9.94336 22.6387,10.16797 L23.2637,10.79297 L20.5098,13.53711 L19.8848,12.92188 C19.6602,12.69727 19.6406,12.59961 19.6699,12.31641 L19.7578,11.35938 L18.1953,9.79688 L16.5742,10.10938 C16.291,10.16797 16.1445,10.16797 15.9102,9.92383 L13.7324,7.7461 C13.5078,7.5117 13.4785,7.375 13.6055,7.0527 L14.5527,4.7773 C12.9512,3.2441 10.8418,2.3945 8.8008,3.0488 C8.7129,3.0781 8.6445,3.0586 8.6152,3.0195 C8.5859,2.9707 8.5859,2.9219 8.6738,2.8535 Z M2.10156,20.41211 C1.61328,19.91406 1.78906,19.61133 2.12109,19.30859 L13.0781,9.19141 L14.3086,10.42188 L4.15234,21.34961 C3.84961,21.68164 3.46875,21.7793 3.06836,21.37891 L2.10156,20.41211 Z" id="Shape"></path>
                </g>
                <text id="Exporting" fill="#000000" font-family="Helvetica-Bold, Helvetica" font-size="13" font-weight="bold">
                    <tspan x="1289" y="1953">Exporting</tspan>
                </text>
                <text id="Symbols-should-be-outlined-when-exporting-to-ensure-the" fill="#000000" font-family="Helvetica" font-size="13" font-weight="normal">
                    <tspan x="1289" y="1971">Symbols should be outlined when exporting to ensure the</tspan>
                </text>
                <text id="design-is-preserved-when-submitting-to-Xcode." fill="#000000" font-family="Helvetica" font-size="13" font-weight="normal">
                    <tspan x="1289" y="1989">design is preserved when submitting to Xcode.</tspan>
                </text>
                <text id="template-version" fill="#000000" font-family="Helvetica" font-size="13" font-weight="normal">
                    <tspan x="2952" y="1933">Template v.1.0</tspan>
                </text>
                <text id="Generated-from-tv" fill="#000000" font-family="Helvetica" font-size="13" font-weight="normal">
                    <tspan x="2931" y="1951">Generated from tv</tspan>
                </text>
                <text id="Typeset-at-100-points" fill="#000000" font-family="Helvetica" font-size="13" font-weight="normal">
                    <tspan x="2912" y="1969">Typeset at 100 points</tspan>
                </text>
                <text id="Small" fill="#000000" font-family="Helvetica" font-size="13" font-weight="normal">
                    <tspan x="263" y="726">Small</tspan>
                </text>
                <text id="Medium" fill="#000000" font-family="Helvetica" font-size="13" font-weight="normal">
                    <tspan x="263" y="1156">Medium</tspan>
                </text>
                <text id="Large" fill="#000000" font-family="Helvetica" font-size="13" font-weight="normal">
                    <tspan x="263" y="1586">Large</tspan>
                </text>
            </g>
            <g id="Guides" transform="translate(263.000000, 625.000000)">
                <g id="H-reference" transform="translate(76.000000, 0.000000)" fill="#27AAE1" fill-rule="nonzero">
                    <path d="M54.9316,71 L57.666,71 L30.5664,0.541 L28.0762,0.541 L0.976562,71 L3.66211,71 L12.9395,46.5371 L45.7031,46.5371 L54.9316,71 Z M29.1992,3.9102 L29.4434,3.9102 L44.8242,44.291 L13.8184,44.291 L29.1992,3.9102 Z" id="Shape"></path>
                </g>
                <line x1="0" y1="71" x2="2773" y2="71" id="Baseline-S" stroke="#27AAE1" stroke-width="0.577"></line>
                <line x1="0" y1="0.541" x2="2773" y2="0.541" id="Capline-S" stroke="#27AAE1" stroke-width="0.577"></line>
                <g id="H-reference" transform="translate(76.000000, 430.000000)" fill="#27AAE1" fill-rule="nonzero">
                    <path d="M54.9316,71 L57.666,71 L30.5664,0.541 L28.0762,0.541 L0.976562,71 L3.66211,71 L12.9395,46.5371 L45.7031,46.5371 L54.9316,71 Z M29.1992,3.9102 L29.4434,3.9102 L44.8242,44.291 L13.8184,44.291 L29.1992,3.9102 Z" id="Shape"></path>
                </g>
                <line x1="0" y1="501" x2="2773" y2="501" id="Baseline-M" stroke="#27AAE1" stroke-width="0.577"></line>
                <line x1="0" y1="430.54" x2="2773" y2="430.54" id="Capline-M" stroke="#27AAE1" stroke-width="0.577"></line>
                <g id="H-reference" transform="translate(76.000000, 860.000000)" fill="#27AAE1" fill-rule="nonzero">
                    <path d="M54.9316,71 L57.666,71 L30.5664,0.541 L28.0762,0.541 L0.976562,71 L3.66211,71 L12.9395,46.5371 L45.7031,46.5371 L54.9316,71 Z M29.1992,3.9102 L29.4434,3.9102 L44.8242,44.291 L13.8184,44.291 L29.1992,3.9102 Z" id="Shape"></path>
                </g>
                <line x1="0" y1="931" x2="2773" y2="931" id="Baseline-L" stroke="#27AAE1" stroke-width="0.577"></line>
                <line x1="0" y1="860.54" x2="2773" y2="860.54" id="Capline-L" stroke="#27AAE1" stroke-width="0.577"></line>
                <rect id="left-margin" fill="#00AEEF" fill-rule="nonzero" opacity="0.4" x="1109.96" y="405.79" width="12.4512" height="119.336"></rect>
                <rect id="right-margin" fill="#00AEEF" fill-rule="nonzero" opacity="0.4" x="1251.27" y="405.79" width="12.4512" height="119.336"></rect>
            </g>
            <g id="Symbols" transform="translate(481.000000, 619.000000)" fill="#000000" fill-rule="nonzero">
                <g id="Black-L" transform="translate(2366.420000, 834.000000)">
                    <path d="M21.6953,111.54492 L150.211,111.54492 C164.029,111.54492 171.891,103.78125 171.891,89.9141 L171.891,21.8965 C171.891,7.9805 164.029,0.217 150.211,0.217 L21.6953,0.217 C7.877,0.217 0.0645,7.9805 0.0645,21.8965 L0.0645,89.9141 C0.0645,103.78125 7.877,111.54492 21.6953,111.54492 Z M24.1855,92.5996 C20.6699,92.5996 19.0098,91.1836 19.0098,87.4238 L19.0098,24.3867 C19.0098,20.5781 20.6699,19.2109 24.1855,19.2109 L147.721,19.2109 C151.236,19.2109 152.896,20.5781 152.896,24.3867 L152.896,87.4238 C152.896,91.1836 151.236,92.5996 147.721,92.5996 L24.1855,92.5996 Z M124.283,120.8223 C128.385,120.8223 131.705,124.2891 131.705,128.1953 C131.705,132.1016 128.385,135.5684 124.283,135.5684 L124.283,135.5684 L47.623,135.5684 C43.5215,135.5684 40.25,132.1016 40.25,128.1953 C40.25,124.2891 43.5215,120.8223 47.623,120.8223 L47.623,120.8223 Z M92.0055241,29 C104.737658,36.6746406 112.283935,51.083868 109.139064,63.1447216 C109.057085,63.4700436 108.968039,63.7911406 108.871926,64.1066043 C108.908675,64.1502622 108.945424,64.1953284 108.982174,64.241803 C115.269089,72.0734713 113.54047,80.3741101 112.754605,78.8080581 C109.34401,72.1579705 103.03024,74.1915847 99.8203517,75.5407554 C93.2237553,79.3374457 84.1538061,79.7275503 75.0287334,75.8307285 C67.6403361,72.6986246 61.5098873,67.2160343 57.58,60.9518263 C59.4663572,62.5178783 61.6670601,63.7712832 64.024936,64.8669563 C73.4485241,69.2679567 82.8701334,68.9665762 89.5005107,64.8782229 C89.4962705,64.8739979 89.4934436,64.8711813 89.4906168,64.8669563 C80.0588308,57.6619905 72.0418834,48.2642703 66.0687487,40.5903339 C64.810659,39.3372106 63.8674804,37.770877 62.9243018,36.3612893 C70.1552435,42.9395527 81.6309836,51.2401915 85.7171957,53.5906778 C77.0726875,44.5056047 69.3695205,33.2291854 69.6833008,33.5418324 C83.3596025,47.3250616 96.0931496,55.1567298 96.0931496,55.1567298 C96.5143503,55.3933276 96.8394381,55.5904924 97.1009218,55.7665324 C97.3765397,55.0680057 97.6182354,54.3427208 97.8217686,53.5906778 C100.022472,45.602686 97.5079882,36.5176129 92.0055241,29 Z" id="Shape"></path>
                </g>
                <g id="Heavy-L" transform="translate(2070.610000, 835.000000)">
                    <path d="M20.1816,109.66602 L149.967,109.66602 C162.906,109.66602 170.084,102.585938 170.084,89.5488 L170.084,20.457 C170.084,7.4199 162.906,0.34 149.967,0.34 L20.1816,0.34 C7.2422,0.34 0.0645,7.4199 0.0645,20.457 L0.0645,89.5488 C0.0645,102.585938 7.2422,109.66602 20.1816,109.66602 Z M22.1348,93.16211 C18.375,93.16211 16.5684,91.5996 16.5684,87.5957 L16.5684,22.4102 C16.5684,18.3574 18.375,16.8438 22.1348,16.8438 L148.014,16.8438 C151.773,16.8438 153.58,18.3574 153.58,22.4102 L153.58,87.5957 C153.58,91.5996 151.773,93.16211 148.014,93.16211 L22.1348,93.16211 Z M123.795,119.7246 C127.652,119.7246 130.729,122.9473 130.729,126.6582 C130.729,130.3691 127.652,133.5918 123.795,133.5918 L123.795,133.5918 L46.3047,133.5918 C42.4473,133.5918 39.3711,130.3691 39.3711,126.6582 C39.3711,122.9473 42.4473,119.7246 46.3047,119.7246 L46.3047,119.7246 Z M91.8155241,28 C104.547658,35.6746406 112.093935,50.083868 108.949064,62.1447216 C108.867085,62.4700436 108.778039,62.7911406 108.681926,63.1066043 C108.718675,63.1502622 108.755424,63.1953284 108.792174,63.241803 C115.079089,71.0734713 113.35047,79.3741101 112.564605,77.8080581 C109.15401,71.1579705 102.84024,73.1915847 99.6303517,74.5407554 C93.0337553,78.3374457 83.9638061,78.7275503 74.8387334,74.8307285 C67.4503361,71.6986246 61.3198873,66.2160343 57.39,59.9518263 C59.2763572,61.5178783 61.4770601,62.7712832 63.834936,63.8669563 C73.2585241,68.2679567 82.6801334,67.9665762 89.3105107,63.8782229 C89.3062705,63.8739979 89.3034436,63.8711813 89.3006168,63.8669563 C79.8688308,56.6619905 71.8518834,47.2642703 65.8787487,39.5903339 C64.620659,38.3372106 63.6774804,36.770877 62.7343018,35.3612893 C69.9652435,41.9395527 81.4409836,50.2401915 85.5271957,52.5906778 C76.8826875,43.5056047 69.1795205,32.2291854 69.4933008,32.5418324 C83.1696025,46.3250616 95.9031496,54.1567298 95.9031496,54.1567298 C96.3243503,54.3933276 96.6494381,54.5904924 96.9109218,54.7665324 C97.1865397,54.0680057 97.4282354,53.3427208 97.6317686,52.5906778 C99.8324715,44.602686 97.3179882,35.5176129 91.8155241,28 Z" id="Shape"></path>
                </g>
                <g id="Bold-L" transform="translate(1774.900000, 836.000000)">
                    <path d="M18.5215,107.68945 L149.625,107.68945 C161.588,107.68945 168.082,101.341797 168.082,89.2324 L168.082,18.9688 C168.082,6.8594 161.588,0.512 149.625,0.512 L18.5215,0.512 C6.5586,0.512 0.0645,6.8594 0.0645,18.9688 L0.0645,89.2324 C0.0645,101.341797 6.5586,107.68945 18.5215,107.68945 Z M19.8398,93.87109 C15.7871,93.87109 13.8828,92.16211 13.8828,87.9141 L13.8828,20.2871 C13.8828,16.0391 15.7871,14.3301 19.8398,14.3301 L148.307,14.3301 C152.359,14.3301 154.264,16.0391 154.264,20.2871 L154.264,87.9141 C154.264,92.16211 152.359,93.87109 148.307,93.87109 L19.8398,93.87109 Z M123.209,118.627 C126.773,118.627 129.654,121.6055 129.654,125.0723 C129.654,128.5391 126.773,131.5176 123.209,131.5176 L123.209,131.5176 L44.791,131.5176 C41.2266,131.5176 38.3945,128.5391 38.3945,125.0723 C38.3945,121.6055 41.2266,118.627 44.791,118.627 L44.791,118.627 Z M90.5255241,27 C103.257658,34.6746406 110.803935,49.083868 107.659064,61.1447216 C107.577085,61.4700436 107.488039,61.7911406 107.391926,62.1066043 C107.428675,62.1502622 107.465424,62.1953284 107.502174,62.241803 C113.789089,70.0734713 112.06047,78.3741101 111.274605,76.8080581 C107.86401,70.1579705 101.55024,72.1915847 98.3403517,73.5407554 C91.7437553,77.3374457 82.6738061,77.7275503 73.5487334,73.8307285 C66.1603361,70.6986246 60.0298873,65.2160343 56.1,58.9518263 C57.9863572,60.5178783 60.1870601,61.7712832 62.544936,62.8669563 C71.9685241,67.2679567 81.3901334,66.9665762 88.0205107,62.8782229 C88.0162705,62.8739979 88.0134436,62.8711813 88.0106168,62.8669563 C78.5788308,55.6619905 70.5618834,46.2642703 64.5887487,38.5903339 C63.330659,37.3372106 62.3874804,35.770877 61.4443018,34.3612893 C68.6752435,40.9395527 80.1509836,49.2401915 84.2371957,51.5906778 C75.5926875,42.5056047 67.8895205,31.2291854 68.2033008,31.5418324 C81.8796025,45.3250616 94.6131496,53.1567298 94.6131496,53.1567298 C95.0343503,53.3933276 95.3594381,53.5904924 95.6209218,53.7665324 C95.8965397,53.0680057 96.1382354,52.3427208 96.3417686,51.5906778 C98.5424715,43.602686 96.0279882,34.5176129 90.5255241,27 Z" id="Shape"></path>
                </g>
                <g id="Semibold-L" transform="translate(1478.880000, 837.000000)">
                    <path d="M17.3496,106.00586 L149.43,106.00586 C160.709,106.00586 166.715,100.195312 166.715,88.7207 L166.715,17.6758 C166.715,6.1523 160.709,0.3418 149.43,0.3418 L17.3496,0.3418 C6.0215,0.3418 0.0645,6.1523 0.0645,17.6758 L0.0645,88.7207 C0.0645,100.195312 6.0215,106.00586 17.3496,106.00586 Z M18.2773,94.04297 C13.9805,94.04297 11.9785,92.23633 11.9785,87.793 L11.9785,18.5547 C11.9785,14.1113 13.9805,12.3047 18.2773,12.3047 L148.502,12.3047 C152.799,12.3047 154.752,14.1113 154.752,18.5547 L154.752,87.793 C154.752,92.23633 152.799,94.04297 148.502,94.04297 L18.2773,94.04297 Z M122.818,117.5781 C126.188,117.5781 128.873,120.3125 128.873,123.6328 C128.873,127.002 126.188,129.7363 122.818,129.7363 L122.818,129.7363 L43.7656,129.7363 C40.3965,129.7363 37.7109,127.002 37.7109,123.6328 C37.7109,120.3125 40.3965,117.5781 43.7656,117.5781 L43.7656,117.5781 Z M89.5455241,26 C102.277658,33.6746406 109.823935,48.083868 106.679064,60.1447216 C106.597085,60.4700436 106.508039,60.7911406 106.411926,61.1066043 C106.448675,61.1502622 106.485424,61.1953284 106.522174,61.241803 C112.809089,69.0734713 111.08047,77.3741101 110.294605,75.8080581 C106.88401,69.1579705 100.57024,71.1915847 97.3603517,72.5407554 C90.7637553,76.3374457 81.6938061,76.7275503 72.5687334,72.8307285 C65.1803361,69.6986246 59.0498873,64.2160343 55.12,57.9518263 C57.0063572,59.5178783 59.2070601,60.7712832 61.564936,61.8669563 C70.9885241,66.2679567 80.4101334,65.9665762 87.0405107,61.8782229 C87.0362705,61.8739979 87.0334436,61.8711813 87.0306168,61.8669563 C77.5988308,54.6619905 69.5818834,45.2642703 63.6087487,37.5903339 C62.350659,36.3372106 61.4074804,34.770877 60.4643018,33.3612893 C67.6952435,39.9395527 79.1709836,48.2401915 83.2571957,50.5906778 C74.6126875,41.5056047 66.9095205,30.2291854 67.2233008,30.5418324 C80.8996025,44.3250616 93.6331496,52.1567298 93.6331496,52.1567298 C94.0543503,52.3933276 94.3794381,52.5904924 94.6409218,52.7665324 C94.9165397,52.0680057 95.1582354,51.3427208 95.3617686,50.5906778 C97.5624715,42.602686 95.0479882,33.5176129 89.5455241,26 Z" id="Shape"></path>
                </g>
                <g id="Medium-L" transform="translate(1182.700000, 837.000000)">
                    <path d="M16.4707,105.46875 L149.234,105.46875 C160.074,105.46875 165.641,100.048828 165.641,89.0625 L165.641,17.3828 C165.641,6.3965 160.074,0.9766 149.234,0.9766 L16.4707,0.9766 C5.6797,0.9766 0.0645,6.3965 0.0645,17.3828 L0.0645,89.0625 C0.0645,100.048828 5.6797,105.46875 16.4707,105.46875 Z M17.0566,94.9707 C12.6133,94.9707 10.5625,93.06641 10.5625,88.4766 L10.5625,17.9688 C10.5625,13.3789 12.6133,11.5234 17.0566,11.5234 L148.648,11.5234 C153.092,11.5234 155.143,13.3789 155.143,17.9688 L155.143,88.4766 C155.143,93.06641 153.092,94.9707 148.648,94.9707 L17.0566,94.9707 Z M122.525,117.4805 C125.748,117.4805 128.336,120.1172 128.336,123.3398 C128.336,126.5625 125.748,129.1992 122.525,129.1992 L122.525,129.1992 L42.9844,129.1992 C39.7617,129.1992 37.2227,126.5625 37.2227,123.3398 C37.2227,120.1172 39.7617,117.4805 42.9844,117.4805 L42.9844,117.4805 Z M89.7255241,26 C102.457658,33.6746406 110.003935,48.083868 106.859064,60.1447216 C106.777085,60.4700436 106.688039,60.7911406 106.591926,61.1066043 C106.628675,61.1502622 106.665424,61.1953284 106.702174,61.241803 C112.989089,69.0734713 111.26047,77.3741101 110.474605,75.8080581 C107.06401,69.1579705 100.75024,71.1915847 97.5403517,72.5407554 C90.9437553,76.3374457 81.8738061,76.7275503 72.7487334,72.8307285 C65.3603361,69.6986246 59.2298873,64.2160343 55.3,57.9518263 C57.1863572,59.5178783 59.3870601,60.7712832 61.744936,61.8669563 C71.1685241,66.2679567 80.5901334,65.9665762 87.2205107,61.8782229 C87.2162705,61.8739979 87.2134436,61.8711813 87.2106168,61.8669563 C77.7788308,54.6619905 69.7618834,45.2642703 63.7887487,37.5903339 C62.530659,36.3372106 61.5874804,34.770877 60.6443018,33.3612893 C67.8752435,39.9395527 79.3509836,48.2401915 83.4371957,50.5906778 C74.7926875,41.5056047 67.0895205,30.2291854 67.4033008,30.5418324 C81.0796025,44.3250616 93.8131496,52.1567298 93.8131496,52.1567298 C94.2343503,52.3933276 94.5594381,52.5904924 94.8209218,52.7665324 C95.0965397,52.0680057 95.3382354,51.3427208 95.5417686,50.5906778 C97.7424715,42.602686 95.2279882,33.5176129 89.7255241,26 Z" id="Shape"></path>
                </g>
                <g id="Regular-L" transform="translate(886.680000, 838.000000)">
                    <path d="M15.3477,103.78516 L149.039,103.78516 C159.195,103.78516 164.273,98.9023438 164.273,88.5508 L164.273,16.0898 C164.273,5.7383 159.195,0.8066 149.039,0.8066 L15.3477,0.8066 C5.1914,0.8066 0.0645,5.7383 0.0645,16.0898 L0.0645,88.5508 C0.0645,98.9023438 5.1914,103.78516 15.3477,103.78516 Z M15.4941,95.14258 C10.8555,95.14258 8.707,93.14062 8.707,88.3555 L8.707,16.2363 C8.707,11.5 10.8555,9.4492 15.4941,9.4492 L148.844,9.4492 C153.531,9.4492 155.631,11.5 155.631,16.2363 L155.631,88.3555 C155.631,93.14062 153.531,95.14258 148.844,95.14258 L15.4941,95.14258 Z M122.135,116.4316 C125.162,116.4316 127.555,118.873 127.555,121.9492 C127.555,125.0254 125.162,127.418 122.135,127.418 L122.135,127.418 L41.959,127.418 C38.9316,127.418 36.5391,125.0254 36.5391,121.9492 C36.5391,118.873 38.9316,116.4316 41.959,116.4316 L41.959,116.4316 Z M88.7455241,25 C101.477658,32.6746406 109.023935,47.083868 105.879064,59.1447216 C105.797085,59.4700436 105.708039,59.7911406 105.611926,60.1066043 C105.648675,60.1502622 105.685424,60.1953284 105.722174,60.241803 C112.009089,68.0734713 110.28047,76.3741101 109.494605,74.8080581 C106.08401,68.1579705 99.7702402,70.1915847 96.5603517,71.5407554 C89.9637553,75.3374457 80.8938061,75.7275503 71.7687334,71.8307285 C64.3803361,68.6986246 58.2498873,63.2160343 54.32,56.9518263 C56.2063572,58.5178783 58.4070601,59.7712832 60.764936,60.8669563 C70.1885241,65.2679567 79.6101334,64.9665762 86.2405107,60.8782229 C86.2362705,60.8739979 86.2334436,60.8711813 86.2306168,60.8669563 C76.7988308,53.6619905 68.7818834,44.2642703 62.8087487,36.5903339 C61.550659,35.3372106 60.6074804,33.770877 59.6643018,32.3612893 C66.8952435,38.9395527 78.3709836,47.2401915 82.4571957,49.5906778 C73.8126875,40.5056047 66.1095205,29.2291854 66.4233008,29.5418324 C80.0996025,43.3250616 92.8331496,51.1567298 92.8331496,51.1567298 C93.2543503,51.3933276 93.5794381,51.5904924 93.8409218,51.7665324 C94.1165397,51.0680057 94.3582354,50.3427208 94.5617686,49.5906778 C96.7624715,41.602686 94.2479882,32.5176129 88.7455241,25 Z" id="Shape"></path>
                </g>
                <g id="Light-L" transform="translate(591.330000, 839.000000)">
                    <path d="M14.0781,101.4668 L147.525,101.4668 C156.803,101.4668 161.539,96.87695 161.539,87.4531 L161.539,14.6992 C161.539,5.2266 156.803,0.6855 147.525,0.6855 L14.0781,0.6855 C4.752,0.6855 0.0645,5.2266 0.0645,14.6992 L0.0645,87.4531 C0.0645,96.87695 4.752,101.4668 14.0781,101.4668 Z M14.2734,94.82617 C9.1465,94.82617 6.7051,92.53125 6.7051,87.3066 L6.7051,14.8457 C6.7051,9.6211 9.1465,7.2773 14.2734,7.2773 L147.33,7.2773 C152.457,7.2773 154.898,9.6211 154.898,14.8457 L154.898,87.3066 C154.898,92.53125 152.457,94.82617 147.33,94.82617 L14.2734,94.82617 Z M120.768,115.5293 C123.551,115.5293 125.65,117.6777 125.65,120.5098 C125.65,123.293 123.551,125.4414 120.768,125.4414 L120.768,125.4414 L40.4453,125.4414 C37.6621,125.4414 35.5625,123.293 35.5625,120.5098 C35.5625,117.6777 37.6621,115.5293 40.4453,115.5293 L40.4453,115.5293 Z M87.0955241,24 C99.8276578,31.6746406 107.373935,46.083868 104.229064,58.1447216 C104.147085,58.4700436 104.058039,58.7911406 103.961926,59.1066043 C103.998675,59.1502622 104.035424,59.1953284 104.072174,59.241803 C110.359089,67.0734713 108.63047,75.3741101 107.844605,73.8080581 C104.43401,67.1579705 98.1202402,69.1915847 94.9103517,70.5407554 C88.3137553,74.3374457 79.2438061,74.7275503 70.1187334,70.8307285 C62.7303361,67.6986246 56.5998873,62.2160343 52.67,55.9518263 C54.5563572,57.5178783 56.7570601,58.7712832 59.114936,59.8669563 C68.5385241,64.2679567 77.9601334,63.9665762 84.5905107,59.8782229 C84.5862705,59.8739979 84.5834436,59.8711813 84.5806168,59.8669563 C75.1488308,52.6619905 67.1318834,43.2642703 61.1587487,35.5903339 C59.900659,34.3372106 58.9574804,32.770877 58.0143018,31.3612893 C65.2452435,37.9395527 76.7209836,46.2401915 80.8071957,48.5906778 C72.1626875,39.5056047 64.4595205,28.2291854 64.7733008,28.5418324 C78.4496025,42.3250616 91.1831496,50.1567298 91.1831496,50.1567298 C91.6043503,50.3933276 91.9294381,50.5904924 92.1909218,50.7665324 C92.4665397,50.0680057 92.7082354,49.3427208 92.9117686,48.5906778 C95.1124715,40.602686 92.5979882,31.5176129 87.0955241,24 Z" id="Shape"></path>
                </g>
                <g id="Thin-L" transform="translate(296.452000, 840.000000)">
                    <path d="M12.418,98.70898 L145.523,98.70898 C153.678,98.70898 157.877,94.55859 157.877,86.3555 L157.877,13.1621 C157.877,4.9102 153.678,0.8086 145.523,0.8086 L12.418,0.8086 C4.2148,0.8086 0.0645,4.9102 0.0645,13.1621 L0.0645,86.3555 C0.0645,94.55859 4.2148,98.70898 12.418,98.70898 Z M12.6621,94.75391 C6.8516,94.75391 3.9707,92.01953 3.9707,86.209 L3.9707,13.3086 C3.9707,7.498 6.8516,4.7148 12.6621,4.7148 L145.279,4.7148 C151.041,4.7148 153.922,7.498 153.922,13.3086 L153.922,86.209 C153.922,92.01953 151.041,94.75391 145.279,94.75391 L12.6621,94.75391 Z M118.912,114.6758 C121.354,114.6758 123.062,116.4824 123.062,118.9238 C123.062,121.3164 121.354,123.123 118.912,123.123 L118.912,123.123 L38.3945,123.123 C35.9531,123.123 34.2441,121.3164 34.2441,118.9238 C34.2441,116.4824 35.9531,114.6758 38.3945,114.6758 L38.3945,114.6758 Z M84.9735241,23 C97.7056578,30.6746406 105.251935,45.083868 102.107064,57.1447216 C102.025085,57.4700436 101.936039,57.7911406 101.839926,58.1066043 C101.876675,58.1502622 101.913424,58.1953284 101.950174,58.241803 C108.237089,66.0734713 106.50847,74.3741101 105.722605,72.8080581 C102.31201,66.1579705 95.9982402,68.1915847 92.7883517,69.5407554 C86.1917553,73.3374457 77.1218061,73.7275503 67.9967334,69.8307285 C60.6083361,66.6986246 54.4778873,61.2160343 50.548,54.9518263 C52.4343572,56.5178783 54.6350601,57.7712832 56.992936,58.8669563 C66.4165241,63.2679567 75.8381334,62.9665762 82.4685107,58.8782229 C82.4642705,58.8739979 82.4614436,58.8711813 82.4586168,58.8669563 C73.0268308,51.6619905 65.0098834,42.2642703 59.0367487,34.5903339 C57.778659,33.3372106 56.8354804,31.770877 55.8923018,30.3612893 C63.1232435,36.9395527 74.5989836,45.2401915 78.6851957,47.5906778 C70.0406875,38.5056047 62.3375205,27.2291854 62.6513008,27.5418324 C76.3276025,41.3250616 89.0611496,49.1567298 89.0611496,49.1567298 C89.4823503,49.3933276 89.8074381,49.5904924 90.0689218,49.7665324 C90.3445397,49.0680057 90.5862354,48.3427208 90.7897686,47.5906778 C92.9904715,39.602686 90.4759882,30.5176129 84.9735241,23 Z" id="Shape"></path>
                </g>
                <g id="Ultralight-L" transform="translate(0.693000, 841.000000)">
                    <path d="M11.5391,96.830078 L144.498,96.830078 C152.066,96.830078 155.973,92.875 155.973,85.3066 L155.973,11.8691 C155.973,4.3008 152.066,0.3945 144.498,0.3945 L11.5391,0.3945 C3.9707,0.3945 0.0645,4.3008 0.0645,11.8691 L0.0645,85.3066 C0.0645,92.875 3.9707,96.830078 11.5391,96.830078 Z M11.7832,94.24219 C5.6797,94.24219 2.6035,91.26367 2.6035,85.1602 L2.6035,12.0156 C2.6035,5.9121 5.6797,2.9336 11.7832,2.9336 L144.254,2.9336 C150.357,2.9336 153.434,5.9121 153.434,12.0156 L153.434,85.1602 C153.434,91.26367 150.357,94.24219 144.254,94.24219 L11.7832,94.24219 Z M117.984,113.7734 C120.23,113.7734 121.744,115.3848 121.744,117.582 C121.744,119.8281 120.23,121.4395 117.984,121.4395 L117.984,121.4395 L37.3691,121.4395 C35.123,121.4395 33.6094,119.8281 33.6094,117.582 C33.6094,115.3848 35.123,113.7734 37.3691,113.7734 L37.3691,113.7734 Z M84.7325241,22 C97.4646578,29.6746406 105.010935,44.083868 101.866064,56.1447216 C101.784085,56.4700436 101.695039,56.7911406 101.598926,57.1066043 C101.635675,57.1502622 101.672424,57.1953284 101.709174,57.241803 C107.996089,65.0734713 106.26747,73.3741101 105.481605,71.8080581 C102.07101,65.1579705 95.7572402,67.1915847 92.5473517,68.5407554 C85.9507553,72.3374457 76.8808061,72.7275503 67.7557334,68.8307285 C60.3673361,65.6986246 54.2368873,60.2160343 50.307,53.9518263 C52.1933572,55.5178783 54.3940601,56.7712832 56.751936,57.8669563 C66.1755241,62.2679567 75.5971334,61.9665762 82.2275107,57.8782229 C82.2232705,57.8739979 82.2204436,57.8711813 82.2176168,57.8669563 C72.7858308,50.6619905 64.7688834,41.2642703 58.7957487,33.5903339 C57.537659,32.3372106 56.5944804,30.770877 55.6513018,29.3612893 C62.8822435,35.9395527 74.3579836,44.2401915 78.4441957,46.5906778 C69.7996875,37.5056047 62.0965205,26.2291854 62.4103008,26.5418324 C76.0866025,40.3250616 88.8201496,48.1567298 88.8201496,48.1567298 C89.2413503,48.3933276 89.5664381,48.5904924 89.8279218,48.7665324 C90.1035397,48.0680057 90.3452354,47.3427208 90.5487686,46.5906778 C92.7494715,38.602686 90.2349882,29.5176129 84.7325241,22 Z" id="Shape"></path>
                </g>
                <g id="Black-M" transform="translate(2384.910000, 418.000000)">
                    <path d="M18.5664,88.169922 L116.418,88.169922 C127.795,88.169922 134.533,81.43164 134.533,70.0547 L134.533,18.541 C134.533,7.1641 127.795,0.4258 116.418,0.4258 L18.5664,0.4258 C7.1895,0.4258 0.4512,7.1641 0.4512,18.541 L0.4512,70.0547 C0.4512,81.43164 7.1895,88.169922 18.5664,88.169922 Z M21.252,71.2754 C18.6641,71.2754 17.3457,70.25 17.3457,67.3691 L17.3457,21.2266 C17.3457,18.3945 18.6641,17.3203 21.252,17.3203 L113.732,17.3203 C116.32,17.3203 117.639,18.3945 117.639,21.2266 L117.639,67.3691 C117.639,70.25 116.32,71.2754 113.732,71.2754 L21.252,71.2754 Z M96.691,95.05469 C100.061,95.05469 102.746,97.93555 102.746,101.0605 C102.746,104.1855 100.061,107.0664 96.691,107.0664 L96.691,107.0664 L38.293,107.0664 C34.9238,107.0664 32.2383,104.1855 32.2383,101.0605 C32.2383,97.93555 34.9238,95.05469 38.293,95.05469 L38.293,95.05469 Z M72.4461,25 C81.4541,30.4495 86.7931,40.681 84.5681,49.245 C84.5101,49.476 84.4471,49.704 84.3791,49.928 C84.4051,49.959 84.4311,49.991 84.4571,50.024 C88.9051,55.585 87.6821,61.479 87.1261,60.367 C84.7131,55.645 80.2461,57.089 77.9751,58.047 C73.308,60.7429 66.891,61.0199 60.435,58.2529 C55.2077,56.0289 50.8704,52.1359 48.09,47.6879 C49.4246,48.7999 50.9816,49.6899 52.6498,50.4679 C59.317,53.5929 65.9828,53.3789 70.6738,50.4759 C70.6708,50.4729 70.6688,50.4709 70.6668,50.4679 C63.9938,45.3519 58.3218,38.6789 54.0958,33.2299 C53.2057,32.3401 52.5384,31.2279 51.8711,30.227 C56.987,34.898 65.1061,40.792 67.9971,42.461 C61.8811,36.01 56.4311,28.003 56.6531,28.225 C66.3291,38.012 75.3381,43.573 75.3381,43.573 C75.6361,43.741 75.8661,43.881 76.0511,44.006 C76.2461,43.51 76.4171,42.995 76.5611,42.461 C78.1181,36.789 76.3391,30.338 72.4461,25 Z" id="Shape"></path>
                </g>
                <g id="Heavy-M" transform="translate(2088.810000, 419.000000)">
                    <path d="M17.248,86.58398 L116.467,86.58398 C127.16,86.58398 133.312,80.48047 133.312,69.7383 L133.312,17.1992 C133.312,6.457 127.16,0.4023 116.467,0.4023 L17.248,0.4023 C6.5547,0.4023 0.4512,6.457 0.4512,17.1992 L0.4512,69.7383 C0.4512,80.48047 6.5547,86.58398 17.248,86.58398 Z M19.3477,71.7891 C16.5645,71.7891 15.1973,70.666 15.1973,67.6875 L15.1973,19.2988 C15.1973,16.2715 16.5645,15.1484 19.3477,15.1484 L114.416,15.1484 C117.199,15.1484 118.518,16.2715 118.518,19.2988 L118.518,67.6875 C118.518,70.666 117.199,71.7891 114.416,71.7891 L19.3477,71.7891 Z M96.496,93.95703 C99.67,93.95703 102.209,96.64258 102.209,99.6211 C102.209,102.5996 99.67,105.2852 96.496,105.2852 L96.496,105.2852 L37.2188,105.2852 C34.0449,105.2852 31.5547,102.5996 31.5547,99.6211 C31.5547,96.64258 34.0449,93.95703 37.2188,93.95703 L37.2188,93.95703 Z M71.5461,24 C80.5541,29.4495 85.8931,39.681 83.6681,48.245 C83.6101,48.476 83.5471,48.704 83.4791,48.928 C83.5051,48.959 83.5311,48.991 83.5571,49.024 C88.0051,54.585 86.7821,60.479 86.2261,59.367 C83.8131,54.645 79.3461,56.089 77.0751,57.047 C72.408,59.7429 65.991,60.0199 59.535,57.2529 C54.3077,55.0289 49.9704,51.1359 47.19,46.6879 C48.5246,47.7999 50.0816,48.6899 51.7498,49.4679 C58.417,52.5929 65.0828,52.3789 69.7738,49.4759 C69.7708,49.4729 69.7688,49.4709 69.7668,49.4679 C63.0938,44.3519 57.4218,37.6789 53.1958,32.2299 C52.3057,31.3401 51.6384,30.2279 50.9711,29.227 C56.087,33.898 64.2061,39.792 67.0971,41.461 C60.9811,35.01 55.5311,27.003 55.7531,27.225 C65.4291,37.012 74.4381,42.573 74.4381,42.573 C74.7361,42.741 74.9661,42.881 75.1511,43.006 C75.3461,42.51 75.5171,41.995 75.6611,41.461 C77.2181,35.789 75.4391,29.338 71.5461,24 Z" id="Shape"></path>
                </g>
                <g id="Bold-M" transform="translate(1792.800000, 420.000000)">
                    <path d="M15.7832,84.85156 L116.564,84.85156 C126.477,84.85156 131.896,79.48047 131.896,69.5195 L131.896,15.8086 C131.896,5.8477 126.477,0.4766 116.564,0.4766 L15.7832,0.4766 C5.9199,0.4766 0.4512,5.8477 0.4512,15.8086 L0.4512,69.5195 C0.4512,79.48047 5.9199,84.85156 15.7832,84.85156 Z M17.1992,72.498 C14.2207,72.498 12.8047,71.2773 12.8047,68.1523 L12.8047,17.2246 C12.8047,14.0508 14.2207,12.8301 17.1992,12.8301 L115.148,12.8301 C118.127,12.8301 119.543,14.0508 119.543,17.2246 L119.543,68.1523 C119.543,71.2773 118.127,72.498 115.148,72.498 L17.1992,72.498 Z M96.252,92.81055 C99.182,92.81055 101.574,95.25195 101.574,98.084 C101.574,100.916 99.182,103.4062 96.252,103.4062 L96.252,103.4062 L36.0469,103.4062 C33.1172,103.4062 30.7734,100.916 30.7734,98.084 C30.7734,95.25195 33.1172,92.81055 36.0469,92.81055 L36.0469,92.81055 Z M70.5561,23 C79.5641,28.4495 84.9031,38.681 82.6781,47.245 C82.6201,47.476 82.5571,47.704 82.4891,47.928 C82.5151,47.959 82.5411,47.991 82.5671,48.024 C87.0151,53.585 85.7921,59.479 85.2361,58.367 C82.8231,53.645 78.3561,55.089 76.0851,56.047 C71.418,58.7429 65.001,59.0199 58.545,56.2529 C53.3177,54.0289 48.9804,50.1359 46.2,45.6879 C47.5346,46.7999 49.0916,47.6899 50.7598,48.4679 C57.427,51.5929 64.0928,51.3789 68.7838,48.4759 C68.7808,48.4729 68.7788,48.4709 68.7768,48.4679 C62.1038,43.3519 56.4318,36.6789 52.2058,31.2299 C51.3157,30.3401 50.6484,29.2279 49.9811,28.227 C55.097,32.898 63.2161,38.792 66.1071,40.461 C59.9911,34.01 54.5411,26.003 54.7631,26.225 C64.4391,36.012 73.4481,41.573 73.4481,41.573 C73.7461,41.741 73.9761,41.881 74.1611,42.006 C74.3561,41.51 74.5271,40.995 74.6711,40.461 C76.2281,34.789 74.4491,28.338 70.5561,23 Z" id="Shape"></path>
                </g>
                <g id="Semibold-M" transform="translate(1496.560000, 421.000000)">
                    <path d="M14.7578,83.36328 L116.662,83.36328 C125.988,83.36328 130.969,78.5293 130.969,69.0566 L130.969,14.5156 C130.969,5.0918 125.988,0.209 116.662,0.209 L14.7578,0.209 C5.4316,0.209 0.4512,5.0918 0.4512,14.5156 L0.4512,69.0566 C0.4512,78.5293 5.4316,83.36328 14.7578,83.36328 Z M15.7344,72.6699 C12.6094,72.6699 11.1934,71.4004 11.1934,68.1289 L11.1934,15.4434 C11.1934,12.2207 12.6094,10.9512 15.7344,10.9512 L115.686,10.9512 C118.811,10.9512 120.227,12.2207 120.227,15.4434 L120.227,68.1289 C120.227,71.4004 118.811,72.6699 115.686,72.6699 L15.7344,72.6699 Z M96.105,91.71289 C98.889,91.71289 101.135,94.00781 101.135,96.7422 C101.135,99.4766 98.889,101.7715 96.105,101.7715 L96.105,101.7715 L35.2168,101.7715 C32.4336,101.7715 30.2363,99.4766 30.2363,96.7422 C30.2363,94.00781 32.4336,91.71289 35.2168,91.71289 L35.2168,91.71289 Z M69.7961,22 C78.8041,27.4495 84.1431,37.681 81.9181,46.245 C81.8601,46.476 81.7971,46.704 81.7291,46.928 L81.8071,47.024 L81.8071,47.024 C86.2551,52.585 85.0321,58.479 84.4761,57.367 C82.0631,52.645 77.5961,54.089 75.3251,55.047 C70.658,57.7429 64.241,58.0199 57.785,55.2529 C52.5577,53.0289 48.2204,49.1359 45.44,44.6879 C46.7746,45.7999 48.3316,46.6899 49.9998,47.4679 C56.667,50.5929 63.3328,50.3789 68.0238,47.4759 C68.0208,47.4729 68.0188,47.4709 68.0168,47.4679 C61.3438,42.3519 55.6718,35.6789 51.4458,30.2299 C50.5557,29.3401 49.8884,28.2279 49.2211,27.227 C54.337,31.898 62.4561,37.792 65.3471,39.461 C59.2311,33.01 53.7811,25.003 54.0031,25.225 C63.6791,35.012 72.6881,40.573 72.6881,40.573 C72.9861,40.741 73.2161,40.881 73.4011,41.006 C73.5961,40.51 73.7671,39.995 73.9111,39.461 C75.4681,33.789 73.6891,27.338 69.7961,22 Z" id="Shape"></path>
                </g>
                <g id="Medium-M" transform="translate(1200.210000, 421.000000)">
                    <path d="M13.9766,83.02148 L116.711,83.02148 C125.598,83.02148 130.236,78.5293 130.236,69.4961 L130.236,14.3203 C130.236,5.2383 125.598,0.7461 116.711,0.7461 L13.9766,0.7461 C5.0898,0.7461 0.4512,5.2383 0.4512,14.3203 L0.4512,69.4961 C0.4512,78.5293 5.0898,83.02148 13.9766,83.02148 Z M14.6113,73.5488 C11.3887,73.5488 9.9238,72.2305 9.9238,68.9102 L9.9238,14.9062 C9.9238,11.5859 11.3887,10.2676 14.6113,10.2676 L116.125,10.2676 C119.299,10.2676 120.764,11.5859 120.764,14.9062 L120.764,68.9102 C120.764,72.2305 119.299,73.5488 116.125,73.5488 L14.6113,73.5488 Z M96.008,91.61523 C98.645,91.61523 100.793,93.8125 100.793,96.4492 C100.793,99.0859 98.645,101.2832 96.008,101.2832 L96.008,101.2832 L34.582,101.2832 C31.9453,101.2832 29.7969,99.0859 29.7969,96.4492 C29.7969,93.8125 31.9453,91.61523 34.582,91.61523 L34.582,91.61523 Z M70.1461,22 C79.1541,27.4495 84.4931,37.681 82.2681,46.245 C82.2101,46.476 82.1471,46.704 82.0791,46.928 L82.1571,47.024 L82.1571,47.024 C86.6051,52.585 85.3821,58.479 84.8261,57.367 C82.4131,52.645 77.9461,54.089 75.6751,55.047 C71.008,57.7429 64.591,58.0199 58.135,55.2529 C52.9077,53.0289 48.5704,49.1359 45.79,44.6879 C47.1246,45.7999 48.6816,46.6899 50.3498,47.4679 C57.017,50.5929 63.6828,50.3789 68.3738,47.4759 C68.3708,47.4729 68.3688,47.4709 68.3668,47.4679 C61.6938,42.3519 56.0218,35.6789 51.7958,30.2299 C50.9057,29.3401 50.2384,28.2279 49.5711,27.227 C54.687,31.898 62.8061,37.792 65.6971,39.461 C59.5811,33.01 54.1311,25.003 54.3531,25.225 C64.0291,35.012 73.0381,40.573 73.0381,40.573 C73.3361,40.741 73.5661,40.881 73.7511,41.006 C73.9461,40.51 74.1171,39.995 74.2611,39.461 C75.8181,33.789 74.0391,27.338 70.1461,22 Z" id="Shape"></path>
                </g>
                <g id="Regular-M" transform="translate(903.960000, 422.000000)">
                    <path d="M13,81.5332 L116.76,81.5332 C125.109,81.5332 129.309,77.5293 129.309,68.9844 L129.309,13.0273 C129.309,4.4824 125.109,0.4785 116.76,0.4785 L13,0.4785 C4.6504,0.4785 0.4512,4.4824 0.4512,13.0273 L0.4512,68.9844 C0.4512,77.5293 4.6504,81.5332 13,81.5332 Z M13.1465,73.6719 C9.7773,73.6719 8.3125,72.3047 8.3125,68.8867 L8.3125,13.1738 C8.3125,9.707 9.7773,8.3398 13.1465,8.3398 L116.613,8.3398 C119.982,8.3398 121.447,9.707 121.447,13.1738 L121.447,68.8867 C121.447,72.3047 119.982,73.6719 116.613,73.6719 L13.1465,73.6719 Z M95.861,90.51758 C98.352,90.51758 100.354,92.56836 100.354,95.1074 C100.354,97.6465 98.352,99.6973 95.861,99.6973 L95.861,99.6973 L33.8008,99.6973 C31.3105,99.6973 29.2598,97.6465 29.2598,95.1074 C29.2598,92.56836 31.3105,90.51758 33.8008,90.51758 L33.8008,90.51758 Z M69.3961,21 C78.4041,26.4495 83.7431,36.681 81.5181,45.245 C81.4601,45.476 81.3971,45.704 81.3291,45.928 C81.3551,45.959 81.3811,45.991 81.4071,46.024 C85.8551,51.585 84.6321,57.479 84.0761,56.367 C81.6631,51.645 77.1961,53.089 74.9251,54.047 C70.258,56.7429 63.841,57.0199 57.385,54.2529 C52.1577,52.0289 47.8204,48.1359 45.04,43.6879 C46.3746,44.7999 47.9316,45.6899 49.5998,46.4679 C56.267,49.5929 62.9328,49.3789 67.6238,46.4759 C67.6208,46.4729 67.6188,46.4709 67.6168,46.4679 C60.9438,41.3519 55.2718,34.6789 51.0458,29.2299 C50.1557,28.3401 49.4884,27.2279 48.8211,26.227 C53.937,30.898 62.0561,36.792 64.9471,38.461 C58.8311,32.01 53.3811,24.003 53.6031,24.225 C63.2791,34.012 72.2881,39.573 72.2881,39.573 C72.5861,39.741 72.8161,39.881 73.0011,40.006 C73.1961,39.51 73.3671,38.995 73.5111,38.461 C75.0681,32.789 73.2891,26.338 69.3961,21 Z" id="Shape"></path>
                </g>
                <g id="Light-M" transform="translate(608.500000, 423.000000)">
                    <path d="M11.877,79.36133 L115.393,79.36133 C123.01,79.36133 126.818,75.65039 126.818,67.9355 L126.818,11.6855 C126.818,3.9707 123.01,0.2598 115.393,0.2598 L11.877,0.2598 C4.2598,0.2598 0.4512,3.9707 0.4512,11.6855 L0.4512,67.9355 C0.4512,75.65039 4.2598,79.36133 11.877,79.36133 Z M12.0234,73.3066 C8.2637,73.3066 6.5059,71.6465 6.5059,67.8379 L6.5059,11.7832 C6.5059,7.9746 8.2637,6.3145 12.0234,6.3145 L115.246,6.3145 C119.006,6.3145 120.764,7.9746 120.764,11.7832 L120.764,67.8379 C120.764,71.6465 119.006,73.3066 115.246,73.3066 L12.0234,73.3066 Z M94.592,89.61523 C96.887,89.61523 98.645,91.42188 98.645,93.7168 C98.645,96.0117 96.887,97.7695 94.592,97.7695 L94.592,97.7695 L32.4336,97.7695 C30.1387,97.7695 28.3809,96.0117 28.3809,93.7168 C28.3809,91.42188 30.1387,89.61523 32.4336,89.61523 L32.4336,89.61523 Z M67.8561,20 C76.8641,25.4495 82.2031,35.681 79.9781,44.245 C79.9201,44.476 79.8571,44.704 79.7891,44.928 C79.8151,44.959 79.8411,44.991 79.8671,45.024 C84.3151,50.585 83.0921,56.479 82.5361,55.367 C80.1231,50.645 75.6561,52.089 73.3851,53.047 C68.718,55.7429 62.301,56.0199 55.845,53.2529 C50.6177,51.0289 46.2804,47.1359 43.5,42.6879 C44.8346,43.7999 46.3916,44.6899 48.0598,45.4679 C54.727,48.5929 61.3928,48.3789 66.0838,45.4759 C66.0808,45.4729 66.0788,45.4709 66.0768,45.4679 C59.4038,40.3519 53.7318,33.6789 49.5058,28.2299 C48.6157,27.3401 47.9484,26.2279 47.2811,25.227 C52.397,29.898 60.5161,35.792 63.4071,37.461 C57.2911,31.01 51.8411,23.003 52.0631,23.225 C61.7391,33.012 70.7481,38.573 70.7481,38.573 C71.0461,38.741 71.2761,38.881 71.4611,39.006 C71.6561,38.51 71.8271,37.995 71.9711,37.461 C73.5281,31.789 71.7491,25.338 67.8561,20 Z" id="Shape"></path>
                </g>
                <g id="Thin-M" transform="translate(313.423000, 424.000000)">
                    <path d="M10.3633,76.79883 L113.586,76.79883 C120.178,76.79883 123.547,73.47852 123.547,66.8379 L123.547,10.1973 C123.547,3.5566 120.178,0.2852 113.586,0.2852 L10.3633,0.2852 C3.7715,0.2852 0.4512,3.5566 0.4512,10.1973 L0.4512,66.8379 C0.4512,73.47852 3.7715,76.79883 10.3633,76.79883 Z M10.5586,73.13672 C6.2129,73.13672 4.0645,71.0859 4.0645,66.7402 L4.0645,10.3438 C4.0645,5.9492 6.2129,3.8984 10.5586,3.8984 L113.439,3.8984 C117.785,3.8984 119.885,5.9492 119.885,10.3438 L119.885,66.7402 C119.885,71.0859 117.785,73.13672 113.439,73.13672 L10.5586,73.13672 Z M92.98,88.76172 C94.934,88.76172 96.35,90.22656 96.35,92.17969 C96.35,94.1328 94.934,95.5977 92.98,95.5977 L92.98,95.5977 L30.5781,95.5977 C28.625,95.5977 27.2578,94.1328 27.2578,92.17969 C27.2578,90.22656 28.625,88.76172 30.5781,88.76172 L30.5781,88.76172 Z M66.9331,19 C75.9411,24.4495 81.2801,34.681 79.0551,43.245 C78.9971,43.476 78.9341,43.704 78.8661,43.928 L78.9441,44.024 L78.9441,44.024 C83.3921,49.585 82.1691,55.479 81.6131,54.367 C79.2001,49.645 74.7331,51.089 72.4621,52.047 C67.795,54.7429 61.378,55.0199 54.922,52.2529 C49.6947,50.0289 45.3574,46.1359 42.577,41.6879 C43.9116,42.7999 45.4686,43.6899 47.1368,44.4679 C53.804,47.5929 60.4698,47.3789 65.1608,44.4759 C65.1578,44.4729 65.1558,44.4709 65.1538,44.4679 C58.4808,39.3519 52.8088,32.6789 48.5828,27.2299 C47.6927,26.3401 47.0254,25.2279 46.3581,24.227 C51.474,28.898 59.5931,34.792 62.4841,36.461 C56.3681,30.01 50.9181,22.003 51.1401,22.225 C60.8161,32.012 69.8251,37.573 69.8251,37.573 C70.1231,37.741 70.3531,37.881 70.5381,38.006 C70.7331,37.51 70.9041,36.995 71.0481,36.461 C72.6051,30.789 70.8261,24.338 66.9331,19 Z" id="Shape"></path>
                </g>
                <g id="Ultralight-M" transform="translate(17.567000, 424.000000)">
                    <path d="M9.6309,75.96875 L112.707,75.96875 C118.762,75.96875 121.838,72.8926 121.838,66.7891 L121.838,9.9531 C121.838,3.8984 118.762,0.7734 112.707,0.7734 L9.6309,0.7734 C3.5273,0.7734 0.4512,3.8984 0.4512,9.9531 L0.4512,66.7891 C0.4512,72.8926 3.5273,75.96875 9.6309,75.96875 Z M9.7773,73.57617 C5.1875,73.57617 2.8438,71.3301 2.8438,66.6914 L2.8438,10.0996 C2.8438,5.4609 5.1875,3.166 9.7773,3.166 L112.512,3.166 C117.15,3.166 119.445,5.4609 119.445,10.0996 L119.445,66.6914 C119.445,71.3301 117.15,73.57617 112.512,73.57617 L9.7773,73.57617 Z M92.102,88.81055 C93.908,88.81055 95.129,90.12891 95.129,91.88672 C95.129,93.6934 93.908,95.0117 92.102,95.0117 L92.102,95.0117 L29.6504,95.0117 C27.8926,95.0117 26.623,93.6934 26.623,91.88672 C26.623,90.12891 27.8926,88.81055 29.6504,88.81055 L29.6504,88.81055 Z M65.7891,19 C74.7971,24.4495 80.1361,34.681 77.9111,43.245 C77.8531,43.476 77.7901,43.704 77.7221,43.928 C77.7481,43.959 77.7741,43.991 77.8001,44.024 C82.2481,49.585 81.0251,55.479 80.4691,54.367 C78.0561,49.645 73.5891,51.089 71.3181,52.047 C66.651,54.7429 60.234,55.0199 53.778,52.2529 C48.5507,50.0289 44.2134,46.1359 41.433,41.6879 C42.7676,42.7999 44.3246,43.6899 45.9928,44.4679 C52.66,47.5929 59.3258,47.3789 64.0168,44.4759 C64.0138,44.4729 64.0118,44.4709 64.0098,44.4679 C57.3368,39.3519 51.6648,32.6789 47.4388,27.2299 C46.5487,26.3401 45.8814,25.2279 45.2141,24.227 C50.33,28.898 58.4491,34.792 61.3401,36.461 C55.2241,30.01 49.7741,22.003 49.9961,22.225 C59.6721,32.012 68.6811,37.573 68.6811,37.573 C68.9791,37.741 69.2091,37.881 69.3941,38.006 C69.5891,37.51 69.7601,36.995 69.9041,36.461 C71.4611,30.789 69.6821,24.338 65.7891,19 Z" id="Shape"></path>
                </g>
                <g id="Black-S" transform="translate(2399.140000, 0.000000)">
                    <path d="M14.877,68.69922 L91.635,68.69922 C100.521,68.69922 105.746,63.4746 105.746,54.5879 L105.746,14.1582 C105.746,5.2715 100.521,0.0469 91.635,0.0469 L14.877,0.0469 C5.9902,0.0469 0.76562,5.2715 0.76562,14.1582 L0.76562,54.5879 C0.76562,63.4746 5.9902,68.69922 14.877,68.69922 Z M16.9277,55.6133 C14.877,55.6133 13.8516,54.7832 13.8516,52.5371 L13.8516,16.209 C13.8516,13.9629 14.877,13.1328 16.9277,13.1328 L89.584,13.1328 C91.635,13.1328 92.66,13.9629 92.66,16.209 L92.66,52.5371 C92.66,54.7832 91.635,55.6133 89.584,55.6133 L16.9277,55.6133 Z M76.1562,74.11914 C78.793,74.11914 80.8926,76.365234 80.8926,78.80664 C80.8926,81.24805 78.793,83.49414 76.1562,83.49414 L76.1562,83.49414 L30.3555,83.49414 C27.7188,83.49414 25.6191,81.24805 25.6191,78.80664 C25.6191,76.365234 27.7188,74.11914 30.3555,74.11914 L30.3555,74.11914 Z M56.7612111,19 C64.4914351,23.6047843 69.0731032,32.2503208 67.1637173,39.486833 C67.1139445,39.6820261 67.059881,39.8746843 67.0015267,40.0639626 C67.0238386,40.0901573 67.0461506,40.1171971 67.0684625,40.1450818 C70.8855181,44.8440828 69.8359994,49.8244661 69.3588675,48.8848349 C67.2881491,44.8947823 63.4547887,46.1149508 61.5059278,46.9244533 C57.5008514,49.2024674 51.9940966,49.4365302 46.4538738,47.0984371 C41.9680612,45.2191747 38.246003,41.9296206 35.86,38.1710958 C37.0052883,39.110727 38.3414294,39.8627699 39.7729968,40.5201738 C45.494461,43.160774 51.2147239,42.9799457 55.2403101,40.5269337 C55.2377356,40.5243987 55.2360193,40.5227088 55.234303,40.5201738 C49.5078616,36.1971943 44.6404292,30.5585622 41.0138832,25.9542003 C40.250043,25.2023264 39.6773988,24.2625262 39.1047547,23.4167736 C43.4949693,27.3637316 50.4623829,32.3441149 52.9432974,33.7544067 C47.694846,28.3033628 43.0179231,21.5375112 43.2084327,21.7250995 C51.5119015,29.9950369 59.2429837,34.6940379 59.2429837,34.6940379 C59.4987127,34.8359966 59.6960874,34.9542955 59.8548454,35.0599195 C60.0221848,34.6408034 60.1689286,34.2056325 60.2925024,33.7544067 C61.6286434,28.9616116 60.1019928,23.5105677 56.7612111,19 Z" id="Shape"></path>
                </g>
                <g id="Heavy-S" transform="translate(2102.770000, 0.000000)">
                    <path d="M13.998,68.35742 L91.83,68.35742 C100.277,68.35742 105.062,63.5723 105.062,55.125 L105.062,13.9141 C105.062,5.4668 100.277,0.6816 91.83,0.6816 L13.998,0.6816 C5.5508,0.6816 0.76562,5.4668 0.76562,13.9141 L0.76562,55.125 C0.76562,63.5723 5.5508,68.35742 13.998,68.35742 Z M15.5605,56.6875 C13.4609,56.6875 12.4355,55.8574 12.4355,53.5137 L12.4355,15.5254 C12.4355,13.2305 13.4609,12.3516 15.5605,12.3516 L90.2676,12.3516 C92.416,12.3516 93.441,13.2305 93.441,15.5254 L93.441,53.5137 C93.441,55.8574 92.416,56.6875 90.2676,56.6875 L15.5605,56.6875 Z M76.1562,74.02148 C78.6465,74.02148 80.6484,76.121094 80.6484,78.51367 C80.6484,80.85742 78.6465,82.95703 76.1562,82.95703 L76.1562,82.95703 L29.6719,82.95703 C27.1816,82.95703 25.1797,80.85742 25.1797,78.51367 C25.1797,76.121094 27.1816,74.02148 29.6719,74.02148 L29.6719,74.02148 Z M57.1312111,19 C64.8614351,23.6047843 69.4431032,32.2503208 67.5337173,39.486833 C67.4839445,39.6820261 67.429881,39.8746843 67.3715267,40.0639626 C67.3938386,40.0901573 67.4161506,40.1171971 67.4384625,40.1450818 C71.2555181,44.8440828 70.2059994,49.8244661 69.7288675,48.8848349 C67.6581491,44.8947823 63.8247887,46.1149508 61.8759278,46.9244533 C57.8708514,49.2024674 52.3640966,49.4365302 46.8238738,47.0984371 C42.3380612,45.2191747 38.616003,41.9296206 36.23,38.1710958 C37.3752883,39.110727 38.7114294,39.8627699 40.1429968,40.5201738 C45.864461,43.160774 51.5847239,42.9799457 55.6103101,40.5269337 C55.6077356,40.5243987 55.6060193,40.5227088 55.604303,40.5201738 C49.8778616,36.1971943 45.0104292,30.5585622 41.3838832,25.9542003 C40.620043,25.2023264 40.0473988,24.2625262 39.4747547,23.4167736 C43.8649693,27.3637316 50.8323829,32.3441149 53.3132974,33.7544067 C48.064846,28.3033628 43.3879231,21.5375112 43.5784327,21.7250995 C51.8819015,29.9950369 59.6129837,34.6940379 59.6129837,34.6940379 C59.8687127,34.8359966 60.0660874,34.9542955 60.2248454,35.0599195 C60.3921848,34.6408034 60.5389286,34.2056325 60.6625024,33.7544067 C61.9986434,28.9616116 60.4719928,23.5105677 57.1312111,19 Z" id="Shape"></path>
                </g>
                <g id="Bold-S" transform="translate(1806.430000, 1.000000)">
                    <path d="M13.0215,66.9668 L92.074,66.9668 C99.984,66.9668 104.33,62.7188 104.33,54.7109 L104.33,12.6699 C104.33,4.6621 99.984,0.4141 92.074,0.4141 L13.0215,0.4141 C5.1113,0.4141 0.76562,4.6621 0.76562,12.6699 L0.76562,54.7109 C0.76562,62.7188 5.1113,66.9668 13.0215,66.9668 Z M14.0957,56.9082 C11.8496,56.9082 10.8242,56.0293 10.8242,53.6367 L10.8242,13.7441 C10.8242,11.3516 11.8496,10.4727 14.0957,10.4727 L91,10.4727 C93.246,10.4727 94.271,11.3516 94.271,13.7441 L94.271,53.6367 C94.271,56.0293 93.246,56.9082 91,56.9082 L14.0957,56.9082 Z M76.1562,72.875 C78.5,72.875 80.4043,74.87695 80.4043,77.12305 C80.4043,79.41797 78.5,81.41992 76.1562,81.41992 L76.1562,81.41992 L28.9395,81.41992 C26.5957,81.41992 24.6914,79.41797 24.6914,77.12305 C24.6914,74.87695 26.5957,72.875 28.9395,72.875 L28.9395,72.875 Z M56.4712111,18 C64.2014351,22.6047843 68.7831032,31.2503208 66.8737173,38.486833 C66.8239445,38.6820261 66.769881,38.8746843 66.7115267,39.0639626 C66.7338386,39.0901573 66.7561506,39.1171971 66.7784625,39.1450818 C70.5955181,43.8440828 69.5459994,48.8244661 69.0688675,47.8848349 C66.9981491,43.8947823 63.1647887,45.1149508 61.2159278,45.9244533 C57.2108514,48.2024674 51.7040966,48.4365302 46.1638738,46.0984371 C41.6780612,44.2191747 37.956003,40.9296206 35.57,37.1710958 C36.7152883,38.110727 38.0514294,38.8627699 39.4829968,39.5201738 C45.204461,42.160774 50.9247239,41.9799457 54.9503101,39.5269337 L54.944303,39.5201738 C49.2178616,35.1971943 44.3504292,29.5585622 40.7238832,24.9542003 C39.960043,24.2023264 39.3873988,23.2625262 38.8147547,22.4167736 C43.2049693,26.3637316 50.1723829,31.3441149 52.6532974,32.7544067 C47.404846,27.3033628 42.7279231,20.5375112 42.9184327,20.7250995 C51.2219015,28.9950369 58.9529837,33.6940379 58.9529837,33.6940379 C59.2087127,33.8359966 59.4060874,33.9542955 59.5648454,34.0599195 C59.7321848,33.6408034 59.8789286,33.2056325 60.0025024,32.7544067 C61.3386434,27.9616116 59.8119928,22.5105677 56.4712111,18 Z" id="Shape"></path>
                </g>
                <g id="Semibold-S" transform="translate(1509.960000, 1.000000)">
                    <path d="M12.3379,66.72266 L92.27,66.72266 C99.789,66.72266 103.842,62.8164 103.842,55.1504 L103.842,12.4746 C103.842,4.8086 99.789,0.9023 92.27,0.9023 L12.3379,0.9023 C4.7695,0.9023 0.76562,4.8086 0.76562,12.4746 L0.76562,55.1504 C0.76562,62.8164 4.7695,66.72266 12.3379,66.72266 Z M13.0703,57.7383 C10.7754,57.7383 9.75,56.8594 9.75,54.418 L9.75,13.207 C9.75,10.7656 10.7754,9.8867 13.0703,9.8867 L91.537,9.8867 C93.832,9.8867 94.857,10.7656 94.857,13.207 L94.857,54.418 C94.857,56.8594 93.832,57.7383 91.537,57.7383 L13.0703,57.7383 Z M76.1074,72.77734 C78.3535,72.77734 80.209,74.68164 80.209,76.878906 C80.209,79.125 78.3535,80.98047 76.1074,80.98047 L76.1074,80.98047 L28.4512,80.98047 C26.2051,80.98047 24.3496,79.125 24.3496,76.878906 C24.3496,74.68164 26.2051,72.77734 28.4512,72.77734 L28.4512,72.77734 Z M55.9412111,18 C63.6714351,22.6047843 68.2531032,31.2503208 66.3437173,38.486833 C66.2939445,38.6820261 66.239881,38.8746843 66.1815267,39.0639626 C66.2038386,39.0901573 66.2261506,39.1171971 66.2484625,39.1450818 C70.0655181,43.8440828 69.0159994,48.8244661 68.5388675,47.8848349 C66.4681491,43.8947823 62.6347887,45.1149508 60.6859278,45.9244533 C56.6808514,48.2024674 51.1740966,48.4365302 45.6338738,46.0984371 C41.1480612,44.2191747 37.426003,40.9296206 35.04,37.1710958 C36.1852883,38.110727 37.5214294,38.8627699 38.9529968,39.5201738 C44.674461,42.160774 50.3947239,41.9799457 54.4203101,39.5269337 C54.4177356,39.5243987 54.4160193,39.5227088 54.414303,39.5201738 C48.6878616,35.1971943 43.8204292,29.5585622 40.1938832,24.9542003 C39.430043,24.2023264 38.8573988,23.2625262 38.2847547,22.4167736 C42.6749693,26.3637316 49.6423829,31.3441149 52.1232974,32.7544067 C46.874846,27.3033628 42.1979231,20.5375112 42.3884327,20.7250995 C50.6919015,28.9950369 58.4229837,33.6940379 58.4229837,33.6940379 C58.6787127,33.8359966 58.8760874,33.9542955 59.0348454,34.0599195 C59.2021848,33.6408034 59.3489286,33.2056325 59.4725024,32.7544067 C60.8086434,27.9616116 59.2819928,22.5105677 55.9412111,18 Z" id="Shape"></path>
                </g>
                <g id="Medium-S" transform="translate(1213.450000, 2.000000)">
                    <path d="M11.8008,65.52734 L92.367,65.52734 C99.643,65.52734 103.451,61.8652 103.451,54.4434 L103.451,11.3281 C103.451,3.9551 99.643,0.293 92.367,0.293 L11.8008,0.293 C4.5254,0.293 0.76562,3.9551 0.76562,11.3281 L0.76562,54.4434 C0.76562,61.8652 4.5254,65.52734 11.8008,65.52734 Z M12.2402,57.373 C9.8965,57.373 8.8711,56.4453 8.8711,54.0039 L8.8711,11.8164 C8.8711,9.3262 9.8965,8.4473 12.2402,8.4473 L91.928,8.4473 C94.271,8.4473 95.297,9.3262 95.297,11.8164 L95.297,54.0039 C95.297,56.4453 94.271,57.373 91.928,57.373 L12.2402,57.373 Z M76.1074,71.72852 C78.3047,71.72852 80.0625,73.53516 80.0625,75.732422 C80.0625,77.88086 78.3047,79.6875 76.1074,79.6875 L76.1074,79.6875 L28.0605,79.6875 C25.9121,79.6875 24.1055,77.88086 24.1055,75.732422 C24.1055,73.53516 25.9121,71.72852 28.0605,71.72852 L28.0605,71.72852 Z M55.4512111,17 C63.1814351,21.6047843 67.7631032,30.2503208 65.8537173,37.486833 C65.8039445,37.6820261 65.749881,37.8746843 65.6915267,38.0639626 C65.7138386,38.0901573 65.7361506,38.1171971 65.7584625,38.1450818 C69.5755181,42.8440828 68.5259994,47.8244661 68.0488675,46.8848349 C65.9781491,42.8947823 62.1447887,44.1149508 60.1959278,44.9244533 C56.1908514,47.2024674 50.6840966,47.4365302 45.1438738,45.0984371 C40.6580612,43.2191747 36.936003,39.9296206 34.55,36.1710958 C35.6952883,37.110727 37.0314294,37.8627699 38.4629968,38.5201738 C44.184461,41.160774 49.9047239,40.9799457 53.9303101,38.5269337 L53.924303,38.5201738 C48.1978616,34.1971943 43.3304292,28.5585622 39.7038832,23.9542003 C38.940043,23.2023264 38.3673988,22.2625262 37.7947547,21.4167736 C42.1849693,25.3637316 49.1523829,30.3441149 51.6332974,31.7544067 C46.384846,26.3033628 41.7079231,19.5375112 41.8984327,19.7250995 C50.2019015,27.9950369 57.9329837,32.6940379 57.9329837,32.6940379 C58.1887127,32.8359966 58.3860874,32.9542955 58.5448454,33.0599195 C58.7121848,32.6408034 58.8589286,32.2056325 58.9825024,31.7544067 C60.3186434,26.9616116 58.7919928,21.5105677 55.4512111,17 Z" id="Shape"></path>
                </g>
                <g id="Regular-S" transform="translate(917.000000, 2.000000)">
                    <path d="M11.1172,65.23438 L92.562,65.23438 C99.447,65.23438 102.914,61.9629 102.914,54.8828 L102.914,11.1816 C102.914,4.0527 99.447,0.7812 92.562,0.7812 L11.1172,0.7812 C4.2324,0.7812 0.76562,4.0527 0.76562,11.1816 L0.76562,54.8828 C0.76562,61.9629 4.2324,65.23438 11.1172,65.23438 Z M11.2148,58.2031 C8.8223,58.2031 7.7969,57.2754 7.7969,54.7852 L7.7969,11.2793 C7.7969,8.7891 8.8223,7.8613 11.2148,7.8613 L92.465,7.8613 C94.857,7.8613 95.883,8.7891 95.883,11.2793 L95.883,54.7852 C95.883,57.2754 94.857,58.2031 92.465,58.2031 L11.2148,58.2031 Z M76.1074,71.63086 C78.1582,71.63086 79.8672,73.38867 79.8672,75.488281 C79.8672,77.58789 78.1582,79.29688 76.1074,79.29688 L76.1074,79.29688 L27.5723,79.29688 C25.4727,79.29688 23.7637,77.58789 23.7637,75.488281 C23.7637,73.38867 25.4727,71.63086 27.5723,71.63086 L27.5723,71.63086 Z M55.9012111,16.7516457 C63.6314351,21.35643 68.2131032,30.0019665 66.3037173,37.2384787 C66.2539445,37.4336718 66.199881,37.62633 66.1415267,37.8156082 C66.1638386,37.841803 66.1861506,37.8688427 66.2084625,37.8967275 C70.0255181,42.5957284 68.9759994,47.5761118 68.4988675,46.6364806 C66.4281491,42.646428 62.5947887,43.8665965 60.6459278,44.6760989 C56.6408514,46.9541131 51.1340966,47.1881759 45.5938738,44.8500828 C41.1080612,42.9708204 37.386003,39.6812663 35,35.9227415 C36.1452883,36.8623727 37.4814294,37.6144156 38.9129968,38.2718195 C44.634461,40.9124197 50.3547239,40.7315914 54.3803101,38.2785794 C54.3777356,38.2760444 54.3760193,38.2743544 54.374303,38.2718195 C48.6478616,33.94884 43.7804292,28.3102078 40.1538832,23.705846 C39.390043,22.953972 38.8173988,22.0141719 38.2447547,21.1684193 C42.6349693,25.1153773 49.6023829,30.0957606 52.0832974,31.5060524 C46.834846,26.0550085 42.1579231,19.2891569 42.3484327,19.4767451 C50.6519015,27.7466826 58.3829837,32.4456836 58.3829837,32.4456836 C58.6387127,32.5876422 58.8360874,32.7059411 58.9948454,32.8115651 C59.1621848,32.3924491 59.3089286,31.9572782 59.4325024,31.5060524 C60.7686434,26.7132573 59.2419928,21.2622134 55.9012111,16.7516457 Z" id="Shape"></path>
                </g>
                <g id="Light-S" transform="translate(621.390000, 3.000000)">
                    <path d="M10.1406,63.209 L91.342,63.209 C97.592,63.209 100.717,60.1816 100.717,53.834 L100.717,9.8398 C100.717,3.4922 97.592,0.4648 91.342,0.4648 L10.1406,0.4648 C3.8906,0.4648 0.76562,3.4922 0.76562,9.8398 L0.76562,53.834 C0.76562,60.1816 3.8906,63.209 10.1406,63.209 Z M10.2383,57.7402 C7.4551,57.7402 6.1855,56.5684 6.1855,53.7363 L6.1855,9.9375 C6.1855,7.1055 7.4551,5.8848 10.2383,5.8848 L91.244,5.8848 C94.027,5.8848 95.297,7.1055 95.297,9.9375 L95.297,53.7363 C95.297,56.5684 94.027,57.7402 91.244,57.7402 L10.2383,57.7402 Z M75.0332,70.72852 C76.8887,70.72852 78.3535,72.24219 78.3535,74.146484 C78.3535,76.00195 76.8887,77.51562 75.0332,77.51562 L75.0332,77.51562 L26.3516,77.51562 C24.4961,77.51562 22.9824,76.00195 22.9824,74.146484 C22.9824,72.24219 24.4961,70.72852 26.3516,70.72852 L26.3516,70.72852 Z M54.5112111,16 C62.2414351,20.6047843 66.8231032,29.2503208 64.9137173,36.486833 C64.8639445,36.6820261 64.809881,36.8746843 64.7515267,37.0639626 C64.7738386,37.0901573 64.7961506,37.1171971 64.8184625,37.1450818 C68.6355181,41.8440828 67.5859994,46.8244661 67.1088675,45.8848349 C65.0381491,41.8947823 61.2047887,43.1149508 59.2559278,43.9244533 C55.2508514,46.2024674 49.7440966,46.4365302 44.2038738,44.0984371 C39.7180612,42.2191747 35.996003,38.9296206 33.61,35.1710958 C34.7552883,36.110727 36.0914294,36.8627699 37.5229968,37.5201738 C43.244461,40.160774 48.9647239,39.9799457 52.9903101,37.5269337 C52.9877356,37.5243987 52.9860193,37.5227088 52.984303,37.5201738 C47.2578616,33.1971943 42.3904292,27.5585622 38.7638832,22.9542003 C38.000043,22.2023264 37.4273988,21.2625262 36.8547547,20.4167736 C41.2449693,24.3637316 48.2123829,29.3441149 50.6932974,30.7544067 C45.444846,25.3033628 40.7679231,18.5375112 40.9584327,18.7250995 C49.2619015,26.9950369 56.9929837,31.6940379 56.9929837,31.6940379 C57.2487127,31.8359966 57.4460874,31.9542955 57.6048454,32.0599195 C57.7721848,31.6408034 57.9189286,31.2056325 58.0425024,30.7544067 C59.3786434,25.9616116 57.8519928,20.5105677 54.5112111,16 Z" id="Shape"></path>
                </g>
                <g id="Thin-S" transform="translate(326.121000, 4.000000)">
                    <path d="M8.8223,60.793 L89.7793,60.793 C95.102,60.793 97.836,58.1562 97.836,52.7363 L97.836,8.4492 C97.836,3.0293 95.102,0.3438 89.7793,0.3438 L8.8223,0.3438 C3.5,0.3438 0.76562,3.0293 0.76562,8.4492 L0.76562,52.7363 C0.76562,58.1562 3.5,60.793 8.8223,60.793 Z M8.9688,57.4727 C5.6484,57.4727 4.0859,55.959 4.0859,52.6387 L4.0859,8.5469 C4.0859,5.2266 5.6484,3.6641 8.9688,3.6641 L89.6328,3.6641 C92.904,3.6641 94.516,5.2266 94.516,8.5469 L94.516,52.6387 C94.516,55.959 92.904,57.4727 89.6328,57.4727 L8.9688,57.4727 Z M73.5684,69.82617 C75.1309,69.82617 76.3027,71.04688 76.3027,72.658203 C76.3027,74.26953 75.1309,75.49023 73.5684,75.49023 L73.5684,75.49023 L24.7402,75.49023 C23.1289,75.49023 21.957,74.26953 21.957,72.658203 C21.957,71.04688 23.1289,69.82617 24.7402,69.82617 L24.7402,69.82617 Z M52.7802111,15 C60.5104351,19.6047843 65.0921032,28.2503208 63.1827173,35.486833 C63.1329445,35.6820261 63.078881,35.8746843 63.0205267,36.0639626 C63.0428386,36.0901573 63.0651506,36.1171971 63.0874625,36.1450818 C66.9045181,40.8440828 65.8549994,45.8244661 65.3778675,44.8848349 C63.3071491,40.8947823 59.4737887,42.1149508 57.5249278,42.9244533 C53.5198514,45.2024674 48.0130966,45.4365302 42.4728738,43.0984371 C37.9870612,41.2191747 34.265003,37.9296206 31.879,34.1710958 C33.0242883,35.110727 34.3604294,35.8627699 35.7919968,36.5201738 C41.513461,39.160774 47.2337239,38.9799457 51.2593101,36.5269337 C51.2567356,36.5243987 51.2550193,36.5227088 51.253303,36.5201738 C45.5268616,32.1971943 40.6594292,26.5585622 37.0328832,21.9542003 C36.269043,21.2023264 35.6963988,20.2625262 35.1237547,19.4167736 C39.5139693,23.3637316 46.4813829,28.3441149 48.9622974,29.7544067 C43.713846,24.3033628 39.0369231,17.5375112 39.2274327,17.7250995 C47.5309015,25.9950369 55.2619837,30.6940379 55.2619837,30.6940379 C55.5177127,30.8359966 55.7150874,30.9542955 55.8738454,31.0599195 C56.0411848,30.6408034 56.1879286,30.2056325 56.3115024,29.7544067 C57.6476434,24.9616116 56.1209928,19.5105677 52.7802111,15 Z" id="Shape"></path>
                </g>
                <g id="Ultralight-S" transform="translate(30.167000, 4.000000)">
                    <path d="M8.1387,60.0605 L88.9492,60.0605 C93.832,60.0605 96.322,57.6191 96.322,52.6875 L96.322,8.2051 C96.322,3.3223 93.832,0.832 88.9492,0.832 L8.1387,0.832 C3.2559,0.832 0.76562,3.3223 0.76562,8.2051 L0.76562,52.6875 C0.76562,57.6191 3.2559,60.0605 8.1387,60.0605 Z M8.2852,57.8633 C4.7207,57.8633 2.9629,56.1543 2.9629,52.5898 L2.9629,8.3027 C2.9629,4.7383 4.7207,3.0293 8.2852,3.0293 L88.8027,3.0293 C92.367,3.0293 94.125,4.7383 94.125,8.3027 L94.125,52.5898 C94.125,56.1543 92.367,57.8633 88.8027,57.8633 L8.2852,57.8633 Z M72.8359,69.92383 C74.252,69.92383 75.2773,70.94922 75.2773,72.414062 C75.2773,73.878906 74.252,74.95312 72.8359,74.95312 L72.8359,74.95312 L23.9102,74.95312 C22.4453,74.95312 21.4199,73.878906 21.4199,72.414062 C21.4199,70.94922 22.4453,69.92383 23.9102,69.92383 L23.9102,69.92383 Z M52.7342111,15 C60.4644351,19.6047843 65.0461032,28.2503208 63.1367173,35.486833 C63.0869445,35.6820261 63.032881,35.8746843 62.9745267,36.0639626 C62.9968386,36.0901573 63.0191506,36.1171971 63.0414625,36.1450818 C66.8585181,40.8440828 65.8089994,45.8244661 65.3318675,44.8848349 C63.2611491,40.8947823 59.4277887,42.1149508 57.4789278,42.9244533 C53.4738514,45.2024674 47.9670966,45.4365302 42.4268738,43.0984371 C37.9410612,41.2191747 34.219003,37.9296206 31.833,34.1710958 C32.9782883,35.110727 34.3144294,35.8627699 35.7459968,36.5201738 C41.467461,39.160774 47.1877239,38.9799457 51.2133101,36.5269337 L51.207303,36.5201738 C45.4808616,32.1971943 40.6134292,26.5585622 36.9868832,21.9542003 C36.223043,21.2023264 35.6503988,20.2625262 35.0777547,19.4167736 C39.4679693,23.3637316 46.4353829,28.3441149 48.9162974,29.7544067 C43.667846,24.3033628 38.9909231,17.5375112 39.1814327,17.7250995 C47.4849015,25.9950369 55.2159837,30.6940379 55.2159837,30.6940379 C55.4717127,30.8359966 55.6690874,30.9542955 55.8278454,31.0599195 C55.9951848,30.6408034 56.1419286,30.2056325 56.2655024,29.7544067 C57.6016434,24.9616116 56.0749928,19.5105677 52.7342111,15 Z" id="Shape"></path>
                </g>
            </g>
        </g>
    </g>
</svg>